<svg xmlns="http://www.w3.org/2000/svg" xmlns:xlink="http://www.w3.org/1999/xlink" xmlns:lucid="lucid" width="1782.82" height="1089.1"><g transform="translate(-1338.18017578125 -759)" lucid:page-tab-id="0_0"><path d="M1000 500h2500v1500H1000z" fill="#f2f3f5"/><path d="M2145.3 766a6 6 0 0 1 6-6H2354a6 6 0 0 1 6 6v149.02a6 6 0 0 1-6 6h-202.7a6 6 0 0 1-6-6z" stroke="#000" stroke-width="2" fill="#fff"/><use xlink:href="#a" transform="matrix(1,0,0,1,2145.3125,760) translate(5.168085937500004 91)"/><path d="M2569.7 786.5a6 6 0 0 1 6-6h148a6 6 0 0 1 6 6v108a6 6 0 0 1-6 6h-148a6 6 0 0 1-6-6z" stroke="#000" stroke-width="2" fill="#fff"/><use xlink:href="#b" transform="matrix(1,0,0,1,2569.699981894354,780.5078125) translate(38.135859374999995 70.1875)"/><path d="M2960 806a6 6 0 0 1 6-6h148a6 6 0 0 1 6 6v108a6 6 0 0 1-6 6h-148a6 6 0 0 1-6-6z" stroke="#000" stroke-width="2" fill="#fff"/><use xlink:href="#c" transform="matrix(1,0,0,1,2960,800) translate(7.127558593750004 70.1875)"/><path d="M1380.25 819.95v-.2A19.75 19.75 0 0 1 1400 800a19.75 19.75 0 0 1 19.75 19.75A19.75 19.75 0 0 1 1400 839.5a19.75 19.75 0 0 1-19.75-19.75v-.2" stroke="#000" stroke-width="2" fill="#fff"/><path d="M1360 806a6 6 0 0 1 6-6h68a6 6 0 0 1 6 6v146a6 6 0 0 1-6 6h-68a6 6 0 0 1-6-6z" fill="none"/><path d="M1400 839.5v55.3l40 63.2m-40-63.2l-40 63.2m0-98.75h80" stroke="#000" stroke-width="2" fill="none"/><use xlink:href="#d" transform="matrix(1,0,0,1,1280,958) translate(58.18017578125 25.1875)"/><path d="M1400 898.17v4.48m0 5.97v8.95m0 5.97v8.96m0 5.97v8.95m0 5.98v8.95m0 5.97v8.96m0 5.97v8.95m0 5.97v8.96m0 5.97v8.95m0 5.98v8.95m0 5.97v8.96m0 5.98v8.95m0 5.97v8.96m0 5.97v8.95m0 5.97v8.96m0 5.98v8.96m0 5.97v8.96m0 5.97v8.96m0 5.96v8.95m0 5.98v8.96m0 5.97v8.96m0 5.97v8.96m0 5.96v8.96m0 5.97v8.94m0 5.97v8.97m0 5.97v8.96m0 5.97v8.95m0 5.97v8.95m0 5.97v8.95m0 5.97v8.96m0 5.97v8.95m0 5.97v8.95m0 5.97v8.96m0 5.97v8.95m0 5.97v8.96m0 5.97v8.95m0 5.97v8.96m0 5.97v8.95m0 5.97v8.96m0 5.97v8.96m0 5.97v8.95m0 5.97v8.96m0 5.98v8.95m0 5.98v8.96m0 5.97v8.96m0 5.96v8.95m0 5.98v8.96m0 5.97v8.96m0 5.97v8.96m0 5.96v8.96m0 5.97v8.94m0 5.97v8.97m0 5.97v8.95m0 5.96v8.96m0 5.97v8.94m0 5.97v8.97m0 5.97v8.96m0 5.97v8.95m0 5.97v8.95m0 5.97v8.95m0 5.97v8.96m0 5.97v8.96m0 5.97v8.95m0 5.97v4.48M1400 898.2v-4.53M1400 1838.46v1.54M2252.68 923.5l.07 4.55m.1 6.04l.14 9.06m.1 6.04l.13 9.06m.1 6.05l.14 9.07m.1 6.04l.14 9.08m.1 6.04l.15 9.07m.1 6.03l.14 9.07m.1 6.04l.13 9.06m.1 6.05l.14 9.06m.1 6.05l.14 9.07m.1 6.04l.15 9.07m.1 6.04l.14 9.07m.1 6.04l.13 9.06m.1 6.05l.14 9.05m.1 6.04l.14 9.06m.1 6.04l.15 9.07m.1 6.04l.14 9.08m.1 6.04l.13 9.06m.1 6.05l.14 9.06m.1 6.04l.14 9.06m.1 6.04l.15 9.07m.1 6.05l.14 9.07m.1 6.04l.13 9.06m.1 6.05l.14 9.06m.1 6.05l.14 9.06m.1 6.04l.15 9.07m.1 6.04l.14 9.06m.1 6.04l.13 9.06m.1 6.05l.14 9.07m.1 6.05l.14 9.06m.1 6.04l.15 9.07m.1 6.03l.14 9.07m.1 6.04l.13 9.07m.1 6.05l.14 9.06m.1 6.06l.14 9.06m.1 6.04l.15 9.07m.1 6.04l.14 9.07m.1 6.04l.13 9.07m.1 6.04l.14 9.05m.1 6.05l.14 9.06m.1 6.04l.15 9.07m.1 6.04l.14 9.08m.1 6.04l.13 9.07m.1 6.03l.14 9.06m.1 6.04l.14 9.06m.1 6.04l.15 9.07m.1 6.05l.14 9.07m.1 6.04l.13 9.07m.1 6.04l.14 9.06m.1 6.05l.14 9.06m.1 6.04l.15 9.07m.1 6.04l.14 9.06m.1 6.04l.13 9.07m.1 6.04l.14 9.07m.1 6.05l.14 9.06m.1 6.04l.15 9.07m.1 6.03l.14 9.07m.1 6.04l.13 9.06m.1 6.05l.14 9.06m.1 6.06l.14 9.06m.1 6.04l.15 9.07m.1 6.04l.07 4.54" stroke="#3a414a" stroke-width="3" fill="none"/><path d="M2254.16 923.53l-2.95.05-.02-1.56h2.95z" stroke="#3a414a" stroke-width=".05" fill="#3a414a"/><path d="M2267.32 1845.07l.02 1.54M2649.7 903v4.5m0 5.98v8.97m0 5.98v8.97m0 5.98v8.98m0 5.98v8.97m0 6v8.96m0 6v8.96m0 5.98v8.97m0 5.98v8.98m0 5.98v8.98m0 5.98v8.97m0 6v8.96m0 5.97v8.97m0 5.98v8.97m0 5.98v8.97m0 5.98v8.97m0 5.98v8.98m0 5.98v8.97m0 6v8.96m0 6v8.96m0 5.98v8.97m0 5.98v8.98m0 5.98v8.98m0 5.98v8.97m0 6v8.96m0 5.97v8.97m0 5.98v8.98m0 5.98v8.97m0 5.98v8.97m0 5.98v8.98m0 5.98v8.97m0 6v8.97m0 5.98v8.97m0 5.98v8.97m0 5.98v8.98m0 5.98v8.98m0 5.98v8.98m0 5.98v8.97m0 5.97v8.97m0 5.98v8.98m0 5.98v8.97m0 5.98v8.97m0 6v8.96m0 5.98v8.97m0 6v8.97m0 5.98v8.97m0 5.98v8.97m0 6v8.96m0 5.98v8.98m0 5.98v8.98m0 5.98v8.97m0 5.97v8.97m0 5.98v8.98m0 5.98v8.97m0 5.98v8.98m0 6v8.96m0 5.98v8.97m0 6v8.97m0 5.98v8.97m0 5.98v8.98m0 5.98v8.97m0 5.98v8.98m0 5.98v8.98m0 5.98v4.5" stroke="#3a414a" stroke-width="3" fill="none"/><path d="M2651.18 903.05h-2.95v-1.54h2.95z" stroke="#3a414a" stroke-width=".05" fill="#3a414a"/><path d="M2649.7 1845.07v1.54M3040 922.5v4.46m0 5.96v8.93m0 5.95v8.93m0 5.95v8.93m0 5.96v8.93m0 5.94v8.93m0 5.95v8.93m0 5.95v8.93m0 5.95v8.93m0 5.96v8.93m0 5.94v8.93m0 5.95v8.93m0 5.95v8.93m0 5.95v8.93m0 5.97v8.92m0 5.95v8.92m0 5.96v8.93m0 5.95v8.94m0 5.95v8.92m0 5.95v8.93m0 5.95v8.93m0 5.95v8.93m0 5.95v8.94m0 5.95v8.92m0 5.95v8.93m0 5.95v8.93m0 5.95v8.93m0 5.96v8.92m0 5.96v8.92m0 5.96v8.93m0 5.96v8.93m0 5.94v8.93m0 5.95v8.93m0 5.95v8.93m0 5.95v8.93m0 5.96v8.93m0 5.94v8.93m0 5.95v8.93m0 5.95v8.93m0 5.95v8.93m0 5.97v8.92m0 5.94v8.93m0 5.96v8.92m0 5.96v8.93m0 5.96v8.92m0 5.95v8.93m0 5.95v8.93m0 5.95v8.93m0 5.95v8.94m0 5.95v8.92m0 5.95v8.93m0 5.95v8.93m0 5.95v8.93m0 5.95v8.94m0 5.95v8.92m0 5.95v8.93m0 5.96v8.92m0 5.96v8.92m0 5.96v8.93m0 5.95v8.93m0 5.95v8.93m0 5.96v8.93m0 5.94v4.46" stroke="#3a414a" stroke-width="3" fill="none"/><path d="M3041.47 922.54h-2.94V921h2.94z" stroke="#3a414a" stroke-width=".05" fill="#3a414a"/><path d="M3040 1845.07v1.54M1401.5 1348.76h840.45M1401.54 1348.76H1400" stroke="#3a414a" stroke-width="3" fill="none"/><path d="M2256.43 1348.76l-12.98 7.5v-15z" stroke="#3a414a" stroke-width="3" fill="#3a414a"/><path d="M2261.34 1374l98.66.86v71.75l-81.5 1.2M2261.37 1374l-1.53-.02" stroke="#3a414a" stroke-width="3" fill="none"/><path d="M2264 1448l12.9-7.7.2 15z" stroke="#3a414a" stroke-width="3" fill="#3a414a"/><path d="M2264.03 1543.62h368.18M2264.07 1543.62h-1.54" stroke="#3a414a" stroke-width="3" fill="none"/><path d="M2646.7 1543.62l-13 7.5v-15z" stroke="#3a414a" stroke-width="3" fill="#3a414a"/><path d="M2651.2 1619.6h371.3M2651.24 1619.6h-1.54" stroke="#3a414a" stroke-width="3" fill="none"/><path d="M3037 1619.6l-13 7.5v-15z" stroke="#3a414a" stroke-width="3" fill="#3a414a"/><path d="M3038.5 1707.6h-2.95m-11.8 0h-5.88m-11.8 0h-5.88m-11.8 0h-5.9m-11.78 0h-5.9m-11.78 0h-5.9m-11.78 0h-5.9m-11.78 0h-5.9m-11.78 0h-5.9m-11.8 0h-5.88m-11.8 0h-5.88m-11.8 0h-5.88m-11.8 0h-5.88m-11.8 0h-5.88m-11.8 0h-5.9m-11.77 0h-5.9m-11.8 0h-5.88m-11.8 0h-5.88m-11.8 0h-5.88m-11.8 0h-5.9m-11.78 0h-5.9m-11.78 0h-2.95M3038.46 1707.6h1.54" stroke="#3a414a" stroke-width="3" fill="none"/><path d="M2652.7 1707.6l13-7.5v15z" stroke="#3a414a" stroke-width="3" fill="#3a414a"/><path d="M2648.2 1785.53h-3.04m-12.14 0h-6.07m-12.15 0h-6.07m-12.14 0h-6.1m-12.13 0h-6.07m-12.15 0h-6.07m-12.14 0h-6.08m-12.14 0h-6.07m-12.15 0h-6.07m-12.14 0h-6.1m-12.13 0H2463m-12.15 0h-6.07m-12.14 0h-6.08m-12.14 0h-6.08m-12.14 0h-6.07m-12.15 0h-6.07m-12.13 0h-6.07m-12.15 0h-6.07m-12.15 0h-6.07m-12.14 0h-6.07m-12.15 0h-3.04M2648.16 1785.53h1.54" stroke="#3a414a" stroke-width="3" fill="none"/><path d="M2269.37 1785.53l13-7.5v15z" stroke="#3a414a" stroke-width="3" fill="#3a414a"/><path d="M2265.67 1835.75h-3m-12.04 0l-6-.02m-12.04 0l-6.03-.02m-12.03 0h-6.02m-12.03-.02h-6.02m-12.03-.02h-6.02m-12.03 0l-6-.02m-12.05 0l-6-.02m-12.04 0l-6-.02m-12.04 0h-6m-12.05-.03h-6m-12.03 0l-6.02-.02m-12.03 0l-6-.02m-12.04 0l-6.02-.02m-12.03 0H2010m-12.02-.02h-6m-12.04 0l-6.02-.02m-12.03 0l-6.03-.02m-12.03 0l-6-.02m-12.04 0h-6.02m-12.03-.03h-6m-12.05-.02h-6m-12.04-.02h-6.02m-12.03-.02h-6m-12.03-.02h-6.02m-12.03-.02h-6.02m-12.03 0l-6-.02m-12.04 0l-6.02-.02m-12.02 0l-6.02-.02m-12.03 0l-6-.02m-12.04 0h-6.03m-12.03-.03h-6.02m-12.03-.02h-6.02m-12.03-.02h-6.02m-12.03-.02h-6m-12.04-.02h-6.02m-12.03 0l-6-.02m-12.04 0l-6-.02m-12.04 0l-6.02-.02m-12.03 0h-6.02m-12.03-.03h-6m-12.04 0l-6.02-.02m-12.03 0h-6.02m-12.02-.02h-6m-12.04-.02h-6.02m-12.03-.02h-6.02m-12.03-.02h-6.02m-12.03 0l-3-.02M2265.63 1835.75h1.54" stroke="#3a414a" stroke-width="3" fill="none"/><path d="M1403 1834.9l13-7.5-.02 15z" stroke="#3a414a" stroke-width="3" fill="#3a414a"/><path d="M1800 1286a6 6 0 0 1 6-6h388a6 6 0 0 1 6 6v48a6 6 0 0 1-6 6h-388a6 6 0 0 1-6-6z" fill="none"/><use xlink:href="#e" transform="matrix(1,0,0,1,1800,1280) translate(24.296875 39.4580078125)"/><use xlink:href="#f" transform="matrix(1,0,0,1,1800,1280) translate(158.080078125 39.4580078125)"/><use xlink:href="#g" transform="matrix(1,0,0,1,1800,1280) translate(289.8955078125 39.4580078125)"/><path d="M2280 1332.6a6 6 0 0 1 6-6h238.76a6 6 0 0 1 6 6v29.47a6 6 0 0 1-6 6H2286a6 6 0 0 1-6-6z" fill="none"/><use xlink:href="#h" transform="matrix(1,0,0,1,2285,1331.604586712399) translate(0 25.4580078125)"/><use xlink:href="#i" transform="matrix(1,0,0,1,2285,1331.604586712399) translate(91.990234375 25.4580078125)"/><use xlink:href="#j" transform="matrix(1,0,0,1,2285,1331.604586712399) translate(134.4814453125 25.4580078125)"/><path d="M2400 1492.6a6 6 0 0 1 6-6h94.6a6 6 0 0 1 6 6v29.47a6 6 0 0 1-6 6H2406a6 6 0 0 1-6-6z" fill="none"/><use xlink:href="#k" transform="matrix(1,0,0,1,2405,1491.604586712399) translate(0 25.4580078125)"/><path d="M2720 1572.6a6 6 0 0 1 6-6h174.46a6 6 0 0 1 6 6v29.47a6 6 0 0 1-6 6H2726a6 6 0 0 1-6-6z" fill="none"/><use xlink:href="#l" transform="matrix(1,0,0,1,2725,1571.604586712399) translate(0 25.4580078125)"/><use xlink:href="#m" transform="matrix(1,0,0,1,2725,1571.604586712399) translate(99.708984375 25.4580078125)"/><path d="M2760 1652.6a6 6 0 0 1 6-6h153.06a6 6 0 0 1 6 6v29.47a6 6 0 0 1-6 6H2766a6 6 0 0 1-6-6z" fill="none"/><use xlink:href="#n" transform="matrix(1,0,0,1,2765,1651.604586712399) translate(0 25.4580078125)"/><path d="M2360 1732.6a6 6 0 0 1 6-6h160.82a6 6 0 0 1 6 6v29.47a6 6 0 0 1-6 6H2366a6 6 0 0 1-6-6z" fill="none"/><use xlink:href="#o" transform="matrix(1,0,0,1,2365,1731.604586712399) translate(0 25.4580078125)"/><use xlink:href="#p" transform="matrix(1,0,0,1,2365,1731.604586712399) translate(93.1201171875 25.4580078125)"/><path d="M1840 1812.6a6 6 0 0 1 6-6h368.5a6 6 0 0 1 6 6v29.47a6 6 0 0 1-6 6H1846a6 6 0 0 1-6-6z" fill="none"/><use xlink:href="#q" transform="matrix(1,0,0,1,1845,1811.604586712399) translate(0 25.4580078125)"/><use xlink:href="#r" transform="matrix(1,0,0,1,1845,1811.604586712399) translate(119.107421875 25.4580078125)"/><use xlink:href="#s" transform="matrix(1,0,0,1,1845,1811.604586712399) translate(214.1064453125 25.4580078125)"/><use xlink:href="#t" transform="matrix(1,0,0,1,1845,1811.604586712399) translate(238.62109375 25.4580078125)"/><path d="M1585.3 804.98a6 6 0 0 1 6-6H1794a6 6 0 0 1 6 6V954a6 6 0 0 1-6 6h-202.7a6 6 0 0 1-6-6z" stroke="#000" stroke-width="2" fill="#fff"/><use xlink:href="#u" transform="matrix(1,0,0,1,1585.3125,798.984375) translate(18.441035156250003 91)"/><path d="M1692.66 962.5v4.5m0 6v9.03m0 6v9.02m0 6v9.02m0 6v9.02m0 6v9m0 6.02v9m0 6.02v9m0 6.02v9m0 6.02v9m0 6.02v9m0 6.02v9m0 6.02v9m0 6.02v9m0 6.02v9m0 6.02v9m0 6.02v9m0 6.02v9m0 6.02v9m0 6.02v9m0 6.02v9m0 6.02v9m0 6.02v9m0 6.02v9m0 6.02v9m0 6.02v9m0 6.02v9m0 6.02v9.02m0 6v9.02m0 6v9.02m0 6v9.02m0 6v9.02m0 6v9.02m0 6v9.02m0 6v9.02m0 6v9.02m0 6v9.02m0 6v9.02m0 6v9.02m0 6v9.02m0 6v9.02m0 6v9.02m0 6v9.02m0 6v9.02m0 6v9.02m0 6v9.02m0 6v9.02m0 6v9.02m0 6v9.02m0 6v9.02m0 6v9.02m0 6v9.02m0 6v9.02m0 6v9.02m0 6v9.02m0 6v9.02m0 6v9.02m0 6v9.02m0 6v4.52" stroke="#3a414a" stroke-width="3" fill="none"/><path d="M1694.13 962.54h-2.95V961h2.95z" stroke="#3a414a" stroke-width=".05" fill="#3a414a"/><path d="M1692.66 1833.64v1.54M1401.5 1044.4h273.67M1401.54 1044.4H1400" stroke="#3a414a" stroke-width="3" fill="none"/><path d="M1689.66 1044.4l-13 7.5v-15z" stroke="#3a414a" stroke-width="3" fill="#3a414a"/><path d="M1440 1006a6 6 0 0 1 6-6h166.4a6 6 0 0 1 6 6v29.47a6 6 0 0 1-6 6H1446a6 6 0 0 1-6-6z" fill="none"/><use xlink:href="#v" transform="matrix(1,0,0,1,1445,1005) translate(0 25.4580078125)"/><use xlink:href="#w" transform="matrix(1,0,0,1,1445,1005) translate(75.20703125 25.4580078125)"/><path d="M1694.16 1087.4H3022.5M1694.2 1087.4h-1.54" stroke="#3a414a" stroke-width="3" fill="none"/><path d="M3037 1087.4l-13 7.5v-15z" stroke="#3a414a" stroke-width="3" fill="#3a414a"/><path d="M1880 1047.47a6 6 0 0 1 6-6h131.87a6 6 0 0 1 6 6v29.47a6 6 0 0 1-6 6H1886a6 6 0 0 1-6-6z" fill="none"/><use xlink:href="#x" transform="matrix(1,0,0,1,1885,1046.468984375) translate(0 25.4580078125)"/><use xlink:href="#y" transform="matrix(1,0,0,1,1885,1046.468984375) translate(79.8154296875 25.4580078125)"/><path d="M3038.5 1153.58h-3m-11.96 0h-5.98m-11.97 0h-6m-11.96 0h-5.98m-11.97 0h-6m-11.96 0h-5.98m-11.97 0h-6m-11.96 0h-6m-11.95 0h-6m-11.97 0h-5.98m-11.96 0h-6m-11.97 0h-5.98m-11.97 0h-5.98m-11.97 0h-5.98m-11.97 0h-5.98m-11.97 0h-5.98m-11.97 0h-5.98m-11.97 0h-5.98m-11.97 0h-6m-11.95 0h-5.98m-11.97 0h-6m-11.95 0h-6m-11.95 0h-6m-11.95 0h-6m-11.96 0h-5.98m-11.98 0h-5.98m-11.97 0h-5.98m-11.98 0h-5.98m-11.97 0h-5.98m-11.98 0h-5.98m-11.97 0H2497m-11.98 0h-5.98m-11.97 0h-6m-11.95 0h-6m-11.95 0h-6m-11.95 0h-6m-11.95 0h-6m-11.95 0h-6m-11.96 0h-5.98m-11.97 0h-5.97m-11.97 0h-5.98m-11.97 0h-5.97m-11.97 0h-5.98m-11.97 0h-5.97m-11.97 0h-5.98m-11.97 0h-5.97m-11.97 0h-6m-11.95 0h-5.98m-11.96 0h-6m-11.95 0h-5.98m-11.96 0h-6m-11.95 0h-5.98m-11.97 0h-5.98m-11.97 0h-5.98m-11.97 0h-5.98m-11.97 0h-5.98m-11.97 0h-5.98m-11.97 0h-5.98m-11.97 0h-5.98m-11.97 0h-5.98m-11.97 0h-6m-11.95 0h-6m-11.95 0h-6m-11.95 0h-6m-11.95 0h-6m-11.96 0h-6m-11.96 0h-5.98m-11.97 0h-6m-11.96 0h-5.98m-11.97 0h-6m-11.96 0h-5.98m-11.97 0h-6m-11.96 0h-5.98m-11.97 0h-6m-11.96 0h-3M3038.46 1153.58h1.54" stroke="#3a414a" stroke-width="3" fill="none"/><path d="M1695.66 1153.58l13-7.5v15z" stroke="#3a414a" stroke-width="3" fill="#3a414a"/><path d="M1840 1125.27a6 6 0 0 1 6-6h119.1a6 6 0 0 1 6 6v29.46a6 6 0 0 1-6 6H1846a6 6 0 0 1-6-6z" fill="none"/><g><use xlink:href="#z" transform="matrix(1,0,0,1,1845,1124.2655078125001) translate(0 25.4580078125)"/><use xlink:href="#A" transform="matrix(1,0,0,1,1845,1124.2655078125001) translate(67.0439453125 25.4580078125)"/></g><path d="M1691.16 1210.55h-3.04m-12.17 0h-6.08m-12.16 0h-6.07m-12.17 0h-6.08m-12.16 0h-6.08m-12.17 0h-6.08m-12.17 0h-6.08m-12.16 0h-6.1m-12.16 0h-6.08m-12.16 0h-6.08m-12.17 0h-6.08m-12.16 0h-6.07m-12.17 0h-6.08m-12.16 0h-6.08m-12.16 0h-6.1m-12.15 0h-3.04M1691.12 1210.55h1.54" stroke="#3a414a" stroke-width="3" fill="none"/><path d="M1403 1210.55l13-7.5v15z" stroke="#3a414a" stroke-width="3" fill="#3a414a"/><path d="M1400 1166.73a6 6 0 0 1 6-6h270.45a6 6 0 0 1 6 6v29.47a6 6 0 0 1-6 6H1406a6 6 0 0 1-6-6z" fill="none"/><g><use xlink:href="#B" transform="matrix(1,0,0,1,1405,1165.7344921875) translate(0 25.4580078125)"/><use xlink:href="#C" transform="matrix(1,0,0,1,1405,1165.7344921875) translate(178.8642578125 25.4580078125)"/></g><defs><path d="M180 0v-1490h510c348 0 508 194 508 460 0 198-88 351-276 417L1256 0h-220L726-579c-117 2-238 0-356 1V0H180zm190-747h312c235 0 327-108 327-283 0-177-92-293-329-293H370v576" id="D"/><path d="M628 24c-324 0-524-230-524-574 0-343 198-582 503-582 237 0 487 146 487 559v75H286c9 234 145 362 343 362 132 0 231-58 273-172l174 48C1024-91 857 24 628 24zM287-650h624c-17-190-120-322-304-322-192 0-309 151-320 322" id="E"/><path d="M613 24c-304 0-509-231-509-576 0-350 205-580 509-580 216 0 392 114 453 309l-173 49c-33-115-133-197-280-197-223 0-326 196-326 419 0 220 103 415 326 415 150 0 252-85 285-206l172 49C1010-95 832 24 613 24" id="F"/><path d="M158 0v-1118h180V0H158zm91-1301c-68 0-125-53-125-119s57-119 125-119c69 0 126 53 126 119s-57 119-126 119" id="G"/><path d="M158 418v-1536h174v179h20c37-59 106-193 324-193 279 0 474 222 474 576 0 356-194 580-473 580-213 0-288-135-325-197h-14v591H158zm492-555c209 0 317-186 317-421 0-232-105-413-317-413-206 0-314 166-314 413 0 249 111 421 314 421" id="H"/><path d="M783 20c-382 0-661-292-661-764 0-473 279-766 661-766 302 0 548 182 601 489h-190c-42-204-217-313-411-313-268 0-476 208-476 590 0 381 209 588 476 588 195 0 369-110 411-313h190c-52 303-296 489-601 489" id="I"/><path d="M613 24c-304 0-509-231-509-576 0-350 205-580 509-580 305 0 511 230 511 580 0 345-206 576-511 576zm0-161c226 0 329-195 329-415 0-222-103-419-329-419-223 0-326 196-326 419 0 220 103 415 326 415" id="J"/><path d="M338-670V0H158v-1118h173l1 207c72-158 192-221 342-221 226 0 378 139 378 422V0H872v-695c0-172-96-275-252-275-161 0-282 109-282 300" id="K"/><path d="M598-1118v154H368v674c0 100 37 144 132 144 23 0 62-6 92-12L629-6c-37 13-88 20-134 20-193 0-307-107-307-290v-688H20v-154h168v-266h180v266h230" id="L"/><path d="M158 0v-1118h174v172h12c41-113 157-188 290-188 26 0 70 2 91 3v181c-11-2-60-10-108-10-161 0-279 109-279 260V0H158" id="M"/><path d="M338-1490V0H158v-1490h180" id="N"/><g id="a"><use transform="matrix(0.0126953125,0,0,0.0126953125,0,0)" xlink:href="#D"/><use transform="matrix(0.0126953125,0,0,0.0126953125,16.3515625,0)" xlink:href="#E"/><use transform="matrix(0.0126953125,0,0,0.0126953125,31.509765625,0)" xlink:href="#F"/><use transform="matrix(0.0126953125,0,0,0.0126953125,46.36328125,0)" xlink:href="#G"/><use transform="matrix(0.0126953125,0,0,0.0126953125,52.66015625,0)" xlink:href="#H"/><use transform="matrix(0.0126953125,0,0,0.0126953125,68.580078125,0)" xlink:href="#E"/><use transform="matrix(0.0126953125,0,0,0.0126953125,83.73828125,0)" xlink:href="#I"/><use transform="matrix(0.0126953125,0,0,0.0126953125,102.73046875,0)" xlink:href="#J"/><use transform="matrix(0.0126953125,0,0,0.0126953125,118.3203125,0)" xlink:href="#K"/><use transform="matrix(0.0126953125,0,0,0.0126953125,133.681640625,0)" xlink:href="#L"/><use transform="matrix(0.0126953125,0,0,0.0126953125,142.1875,0)" xlink:href="#M"/><use transform="matrix(0.0126953125,0,0,0.0126953125,151.5439453125,0)" xlink:href="#J"/><use transform="matrix(0.0126953125,0,0,0.0126953125,167.1337890625,0)" xlink:href="#N"/><use transform="matrix(0.0126953125,0,0,0.0126953125,173.4306640625,0)" xlink:href="#N"/><use transform="matrix(0.0126953125,0,0,0.0126953125,179.7275390625,0)" xlink:href="#E"/><use transform="matrix(0.0126953125,0,0,0.0126953125,194.8857421875,0)" xlink:href="#M"/><path d="M-1.3 5.3h207.27v1.8H-1.3z"/></g><g id="b"><use transform="matrix(0.0126953125,0,0,0.0126953125,0,0)" xlink:href="#D"/><use transform="matrix(0.0126953125,0,0,0.0126953125,16.3515625,0)" xlink:href="#E"/><use transform="matrix(0.0126953125,0,0,0.0126953125,31.509765625,0)" xlink:href="#F"/><use transform="matrix(0.0126953125,0,0,0.0126953125,46.36328125,0)" xlink:href="#G"/><use transform="matrix(0.0126953125,0,0,0.0126953125,52.66015625,0)" xlink:href="#H"/><use transform="matrix(0.0126953125,0,0,0.0126953125,68.580078125,0)" xlink:href="#E"/><path d="M-1.3 5.3h86.34v1.8H-1.3z"/></g><path d="M180 0v-1490h510c348 0 508 209 508 474 0 266-160 477-507 477H370V0H180zm190-706h312c236 0 327-133 327-310 0-176-91-307-329-307H370v617" id="O"/><path d="M538 24C308 24 148-78 108-271l171-41c32 123 123 178 257 178 156 0 256-77 256-169 0-77-54-128-164-154l-186-44c-203-48-300-148-300-305 0-192 176-326 414-326 230 0 351 112 402 269l-163 42c-31-80-94-158-238-158-133 0-233 69-233 162 0 83 57 129 188 160l169 40c203 48 298 149 298 302 0 196-179 339-441 339" id="P"/><path d="M611 442c-248 0-391-105-460-228l146-94c47 65 117 165 314 165 178 0 307-82 307-266v-224h-17C863-141 792-18 576-18c-268 0-472-195-472-546 0-346 197-568 476-568 216 0 288 133 326 193h17v-179h175V29c0 289-215 413-487 413zm-5-620c203 0 314-146 314-390 0-237-108-403-314-403-213 0-319 180-319 403 0 230 109 390 319 390" id="Q"/><path d="M657 26c-323 0-524-166-541-416h195c15 169 171 246 346 246 202 0 356-106 356-265 5-203-294-238-475-293-239-73-380-191-380-389 0-252 224-419 512-419 294 0 499 171 508 396H992c-17-145-151-228-328-228-193 0-321 102-321 242 0 156 175 211 284 241l149 41c160 44 422 134 422 412 0 244-197 432-541 432" id="R"/><path d="M784 20c-382 0-662-292-662-764 0-473 280-766 662-766s660 293 660 766c0 282-99 499-260 629l192 255h-198L1049-33C969 2 880 20 784 20zm-62-486h198l156 205c112-98 183-261 183-483 0-383-209-590-475-590-268 0-477 208-477 590 0 380 209 588 477 588 54 0 106-9 154-25" id="S"/><path d="M180 0v-1490h190v1322h690V0H180" id="T"/><g id="c"><use transform="matrix(0.0126953125,0,0,0.0126953125,0,0)" xlink:href="#O"/><use transform="matrix(0.0126953125,0,0,0.0126953125,16.4658203125,0)" xlink:href="#J"/><use transform="matrix(0.0126953125,0,0,0.0126953125,32.0556640625,0)" xlink:href="#P"/><use transform="matrix(0.0126953125,0,0,0.0126953125,45.779296875,0)" xlink:href="#L"/><use transform="matrix(0.0126953125,0,0,0.0126953125,54.03125,0)" xlink:href="#Q"/><use transform="matrix(0.0126953125,0,0,0.0126953125,69.9765625,0)" xlink:href="#M"/><use transform="matrix(0.0126953125,0,0,0.0126953125,79.3330078125,0)" xlink:href="#E"/><use transform="matrix(0.0126953125,0,0,0.0126953125,94.4912109375,0)" xlink:href="#R"/><use transform="matrix(0.0126953125,0,0,0.0126953125,111.1728515625,0)" xlink:href="#S"/><use transform="matrix(0.0126953125,0,0,0.0126953125,131.0537109375,0)" xlink:href="#T"/><path d="M-1.3 5.3h148.35v1.8H-1.3z"/></g><path d="M763 24c-353 0-583-224-583-531v-983h190v968c0 214 149 370 393 370 243 0 391-156 391-370v-968h190v983c0 307-230 531-581 531" id="U"/><path d="M471 26C259 26 90-98 90-318c0-256 228-303 435-329 202-27 287-16 287-108 0-139-79-219-234-219-161 0-248 86-283 164l-173-57c86-203 278-265 451-265 150 0 419 46 419 395V0H815v-152h-12C765-73 660 26 471 26zm31-159c199 0 310-134 310-271v-155c-30 35-226 55-295 64-131 17-246 59-246 186 0 116 97 176 231 176" id="V"/><path d="M537 14c-226 0-379-139-379-422v-710h180v695c0 172 97 275 253 275 160 0 281-109 281-300v-670h181V0H879v-209C806-46 684 14 537 14" id="W"/><g id="d"><use transform="matrix(0.0126953125,0,0,0.0126953125,0,0)" xlink:href="#U"/><use transform="matrix(0.0126953125,0,0,0.0126953125,19.34765625,0)" xlink:href="#L"/><use transform="matrix(0.0126953125,0,0,0.0126953125,27.853515625,0)" xlink:href="#G"/><use transform="matrix(0.0126953125,0,0,0.0126953125,34.150390625,0)" xlink:href="#N"/><use transform="matrix(0.0126953125,0,0,0.0126953125,40.447265625,0)" xlink:href="#G"/><use transform="matrix(0.0126953125,0,0,0.0126953125,46.744140625,0)" xlink:href="#P"/><use transform="matrix(0.0126953125,0,0,0.0126953125,60.4677734375,0)" xlink:href="#V"/><use transform="matrix(0.0126953125,0,0,0.0126953125,75.0673828125,0)" xlink:href="#L"/><use transform="matrix(0.0126953125,0,0,0.0126953125,83.3193359375,0)" xlink:href="#E"/><use transform="matrix(0.0126953125,0,0,0.0126953125,98.4775390625,0)" xlink:href="#W"/><use transform="matrix(0.0126953125,0,0,0.0126953125,113.8515625,0)" xlink:href="#M"/></g><path d="M158 0v-1118h175l1 205c55-151 181-225 313-225 147 0 245 90 285 228 53-141 190-228 352-228 194 0 352 125 352 384V0h-181v-749c0-161-105-225-225-225-151 0-243 103-243 244V0H807v-767c0-124-93-207-219-207-131 0-250 92-250 270V0H158" id="X"/><g id="e"><use transform="matrix(0.0126953125,0,0,0.0126953125,0,0)" xlink:href="#R"/><use transform="matrix(0.0126953125,0,0,0.0126953125,16.681640625,0)" xlink:href="#J"/><use transform="matrix(0.0126953125,0,0,0.0126953125,32.271484375,0)" xlink:href="#W"/><use transform="matrix(0.0126953125,0,0,0.0126953125,47.6455078125,0)" xlink:href="#X"/><use transform="matrix(0.0126953125,0,0,0.0126953125,70.4208984375,0)" xlink:href="#E"/><use transform="matrix(0.0126953125,0,0,0.0126953125,85.5791015625,0)" xlink:href="#L"/><use transform="matrix(0.0126953125,0,0,0.0126953125,93.4501953125,0)" xlink:href="#L"/><use transform="matrix(0.0126953125,0,0,0.0126953125,101.9560546875,0)" xlink:href="#M"/><use transform="matrix(0.0126953125,0,0,0.0126953125,111.3125,0)" xlink:href="#E"/></g><path d="M678-1118v154H420V0H240v-964H20v-154h220v-149c0-194 155-293 318-293 85 0 141 18 168 30l-50 154c-19-6-47-17-97-17-111 0-159 58-159 166v109h258" id="Y"/><g id="f"><use transform="matrix(0.0126953125,0,0,0.0126953125,0,0)" xlink:href="#Y"/><use transform="matrix(0.0126953125,0,0,0.0126953125,8.861328125,0)" xlink:href="#J"/><use transform="matrix(0.0126953125,0,0,0.0126953125,24.451171875,0)" xlink:href="#M"/><use transform="matrix(0.0126953125,0,0,0.0126953125,34.6455078125,0)" xlink:href="#X"/><use transform="matrix(0.0126953125,0,0,0.0126953125,57.4208984375,0)" xlink:href="#W"/><use transform="matrix(0.0126953125,0,0,0.0126953125,72.794921875,0)" xlink:href="#N"/><use transform="matrix(0.0126953125,0,0,0.0126953125,79.091796875,0)" xlink:href="#V"/><use transform="matrix(0.0126953125,0,0,0.0126953125,93.69140625,0)" xlink:href="#G"/><use transform="matrix(0.0126953125,0,0,0.0126953125,99.98828125,0)" xlink:href="#M"/><use transform="matrix(0.0126953125,0,0,0.0126953125,109.3447265625,0)" xlink:href="#E"/></g><g id="g"><use transform="matrix(0.0126953125,0,0,0.0126953125,0,0)" xlink:href="#M"/><use transform="matrix(0.0126953125,0,0,0.0126953125,9.3564453125,0)" xlink:href="#E"/><use transform="matrix(0.0126953125,0,0,0.0126953125,24.5146484375,0)" xlink:href="#F"/><use transform="matrix(0.0126953125,0,0,0.0126953125,39.3681640625,0)" xlink:href="#E"/><use transform="matrix(0.0126953125,0,0,0.0126953125,54.5263671875,0)" xlink:href="#L"/><use transform="matrix(0.0126953125,0,0,0.0126953125,62.3974609375,0)" xlink:href="#L"/><use transform="matrix(0.0126953125,0,0,0.0126953125,70.6494140625,0)" xlink:href="#E"/></g><path d="M600 0L52-1490h200c166 485 304 806 458 1336 156-533 285-846 449-1336h202L819 0H600" id="Z"/><path d="M577 24c-279 0-473-224-473-580 0-354 195-576 474-576 218 0 287 134 324 193h14v-551h180V0H922v-173h-20C865-111 790 24 577 24zm27-161c203 0 314-172 314-421 0-247-108-413-314-413-212 0-317 181-317 413 0 235 108 421 317 421" id="aa"/><g id="h"><use transform="matrix(0.0126953125,0,0,0.0126953125,0,0)" xlink:href="#Z"/><use transform="matrix(0.0126953125,0,0,0.0126953125,16.6181640625,0)" xlink:href="#V"/><use transform="matrix(0.0126953125,0,0,0.0126953125,31.2177734375,0)" xlink:href="#N"/><use transform="matrix(0.0126953125,0,0,0.0126953125,37.5146484375,0)" xlink:href="#G"/><use transform="matrix(0.0126953125,0,0,0.0126953125,43.8115234375,0)" xlink:href="#aa"/><use transform="matrix(0.0126953125,0,0,0.0126953125,59.7314453125,0)" xlink:href="#E"/><use transform="matrix(0.0126953125,0,0,0.0126953125,74.8896484375,0)" xlink:href="#M"/></g><g id="i"><use transform="matrix(0.0126953125,0,0,0.0126953125,0,0)" xlink:href="#N"/><use transform="matrix(0.0126953125,0,0,0.0126953125,6.296875,0)" xlink:href="#E"/><use transform="matrix(0.0126953125,0,0,0.0126953125,21.455078125,0)" xlink:href="#P"/></g><path d="M628 24c-324 0-524-230-524-574 0-343 198-582 503-582 237 0 487 146 487 559v75H286c9 234 145 362 343 362 132 0 231-58 273-172l174 48C1024-91 857 24 628 24zM287-650h624c-17-190-120-322-304-322-192 0-309 151-320 322zm237-614l140-294h201l-194 294H524" id="ab"/><g id="j"><use transform="matrix(0.0126953125,0,0,0.0126953125,0,0)" xlink:href="#aa"/><use transform="matrix(0.0126953125,0,0,0.0126953125,15.919921875,0)" xlink:href="#J"/><use transform="matrix(0.0126953125,0,0,0.0126953125,31.509765625,0)" xlink:href="#K"/><use transform="matrix(0.0126953125,0,0,0.0126953125,46.87109375,0)" xlink:href="#K"/><use transform="matrix(0.0126953125,0,0,0.0126953125,62.232421875,0)" xlink:href="#ab"/><use transform="matrix(0.0126953125,0,0,0.0126953125,77.390625,0)" xlink:href="#E"/><use transform="matrix(0.0126953125,0,0,0.0126953125,92.548828125,0)" xlink:href="#P"/></g><path d="M218-607c0-325 108-727 258-974h175c-155 315-250 682-250 974 0 265 78 531 250 886H476C306-10 218-315 218-607" id="ac"/><path d="M96 279C273-86 346-350 346-607c0-292-95-659-250-974h175c150 246 258 650 258 974 0 297-91 602-258 886H96" id="ad"/><g id="k"><use transform="matrix(0.0126953125,0,0,0.0126953125,0,0)" xlink:href="#F"/><use transform="matrix(0.0126953125,0,0,0.0126953125,14.853515625,0)" xlink:href="#M"/><use transform="matrix(0.0126953125,0,0,0.0126953125,24.2099609375,0)" xlink:href="#E"/><use transform="matrix(0.0126953125,0,0,0.0126953125,39.6220703125,0)" xlink:href="#V"/><use transform="matrix(0.0126953125,0,0,0.0126953125,54.2216796875,0)" xlink:href="#L"/><use transform="matrix(0.0126953125,0,0,0.0126953125,62.4736328125,0)" xlink:href="#E"/><use transform="matrix(0.0126953125,0,0,0.0126953125,77.6318359375,0)" xlink:href="#ac"/><use transform="matrix(0.0126953125,0,0,0.0126953125,87.115234375,0)" xlink:href="#ad"/></g><path d="M370-1490V0H180v-1490h190" id="ae"/><path d="M180 0v-1490h224l606 953c40 63 108 177 176 312-27-437-7-821-13-1265h190V0h-226C860-448 622-778 356-1262c27 476 11 792 15 1262H180" id="af"/><path d="M180 0v-1490h908v168H370v486h669v168H370v500h727V0H180" id="ag"/><path d="M98-1322v-168h1126v168H757V0H567v-1322H98" id="ah"/><g id="l"><use transform="matrix(0.0126953125,0,0,0.0126953125,0,0)" xlink:href="#ae"/><use transform="matrix(0.0126953125,0,0,0.0126953125,6.982421875,0)" xlink:href="#af"/><use transform="matrix(0.0126953125,0,0,0.0126953125,26.5712890625,0)" xlink:href="#R"/><use transform="matrix(0.0126953125,0,0,0.0126953125,43.2529296875,0)" xlink:href="#ag"/><use transform="matrix(0.0126953125,0,0,0.0126953125,58.880859375,0)" xlink:href="#D"/><use transform="matrix(0.0126953125,0,0,0.0126953125,75.61328125,0)" xlink:href="#ah"/></g><g id="m"><use transform="matrix(0.0126953125,0,0,0.0126953125,0,0)" xlink:href="#M"/><use transform="matrix(0.0126953125,0,0,0.0126953125,9.3564453125,0)" xlink:href="#E"/><use transform="matrix(0.0126953125,0,0,0.0126953125,24.5146484375,0)" xlink:href="#F"/><use transform="matrix(0.0126953125,0,0,0.0126953125,39.3681640625,0)" xlink:href="#G"/><use transform="matrix(0.0126953125,0,0,0.0126953125,45.6650390625,0)" xlink:href="#H"/><use transform="matrix(0.0126953125,0,0,0.0126953125,61.5849609375,0)" xlink:href="#E"/></g><g id="n"><use transform="matrix(0.0126953125,0,0,0.0126953125,0,0)" xlink:href="#F"/><use transform="matrix(0.0126953125,0,0,0.0126953125,14.853515625,0)" xlink:href="#J"/><use transform="matrix(0.0126953125,0,0,0.0126953125,30.443359375,0)" xlink:href="#K"/><use transform="matrix(0.0126953125,0,0,0.0126953125,45.8046875,0)" xlink:href="#Y"/><use transform="matrix(0.0126953125,0,0,0.0126953125,55.427734375,0)" xlink:href="#G"/><use transform="matrix(0.0126953125,0,0,0.0126953125,61.724609375,0)" xlink:href="#M"/><use transform="matrix(0.0126953125,0,0,0.0126953125,71.9189453125,0)" xlink:href="#X"/><use transform="matrix(0.0126953125,0,0,0.0126953125,94.6943359375,0)" xlink:href="#V"/><use transform="matrix(0.0126953125,0,0,0.0126953125,109.2939453125,0)" xlink:href="#L"/><use transform="matrix(0.0126953125,0,0,0.0126953125,117.7998046875,0)" xlink:href="#G"/><use transform="matrix(0.0126953125,0,0,0.0126953125,124.0966796875,0)" xlink:href="#J"/><use transform="matrix(0.0126953125,0,0,0.0126953125,139.6865234375,0)" xlink:href="#K"/></g><g id="o"><use transform="matrix(0.0126953125,0,0,0.0126953125,0,0)" xlink:href="#M"/><use transform="matrix(0.0126953125,0,0,0.0126953125,9.3564453125,0)" xlink:href="#E"/><use transform="matrix(0.0126953125,0,0,0.0126953125,24.5146484375,0)" xlink:href="#F"/><use transform="matrix(0.0126953125,0,0,0.0126953125,39.3681640625,0)" xlink:href="#E"/><use transform="matrix(0.0126953125,0,0,0.0126953125,54.5263671875,0)" xlink:href="#L"/><use transform="matrix(0.0126953125,0,0,0.0126953125,62.3974609375,0)" xlink:href="#L"/><use transform="matrix(0.0126953125,0,0,0.0126953125,70.6494140625,0)" xlink:href="#E"/></g><g id="p"><use transform="matrix(0.0126953125,0,0,0.0126953125,0,0)" xlink:href="#F"/><use transform="matrix(0.0126953125,0,0,0.0126953125,14.853515625,0)" xlink:href="#M"/><use transform="matrix(0.0126953125,0,0,0.0126953125,24.2099609375,0)" xlink:href="#ab"/><use transform="matrix(0.0126953125,0,0,0.0126953125,39.3681640625,0)" xlink:href="#ab"/><use transform="matrix(0.0126953125,0,0,0.0126953125,54.5263671875,0)" xlink:href="#E"/></g><path d="M180 0v-1490h270l367 940c28 72 75 218 110 339 35-117 81-264 110-339l362-940h271V0h-187c2-448-5-837 7-1287-157 497-311 829-483 1287H842C666-458 514-784 354-1284c12 438 5 843 7 1284H180" id="ai"/><g id="q"><use transform="matrix(0.0126953125,0,0,0.0126953125,0,0)" xlink:href="#ai"/><use transform="matrix(0.0126953125,0,0,0.0126953125,23.486328125,0)" xlink:href="#E"/><use transform="matrix(0.0126953125,0,0,0.0126953125,38.64453125,0)" xlink:href="#P"/><use transform="matrix(0.0126953125,0,0,0.0126953125,52.3681640625,0)" xlink:href="#P"/><use transform="matrix(0.0126953125,0,0,0.0126953125,66.091796875,0)" xlink:href="#V"/><use transform="matrix(0.0126953125,0,0,0.0126953125,80.69140625,0)" xlink:href="#Q"/><use transform="matrix(0.0126953125,0,0,0.0126953125,96.63671875,0)" xlink:href="#E"/></g><path d="M628 24c-324 0-524-230-524-574 0-343 198-582 503-582 237 0 487 146 487 559v75H286c9 234 145 362 343 362 132 0 231-58 273-172l174 48C1024-91 857 24 628 24zM287-650h624c-17-190-120-322-304-322-192 0-309 151-320 322zm245-614l-193-294h201l140 294H532" id="aj"/><g id="r"><use transform="matrix(0.0126953125,0,0,0.0126953125,0,0)" xlink:href="#P"/><use transform="matrix(0.0126953125,0,0,0.0126953125,13.7236328125,0)" xlink:href="#W"/><use transform="matrix(0.0126953125,0,0,0.0126953125,29.09765625,0)" xlink:href="#F"/><use transform="matrix(0.0126953125,0,0,0.0126953125,43.951171875,0)" xlink:href="#F"/><use transform="matrix(0.0126953125,0,0,0.0126953125,58.8046875,0)" xlink:href="#aj"/><use transform="matrix(0.0126953125,0,0,0.0126953125,73.962890625,0)" xlink:href="#P"/></g><path d="M593-100v-404H195v-159h398v-403h169v403h398v159H762v404H593" id="ak"/><use transform="matrix(0.0126953125,0,0,0.0126953125,0,0)" xlink:href="#ak" id="s"/><g id="t"><use transform="matrix(0.0126953125,0,0,0.0126953125,0,0)" xlink:href="#M"/><use transform="matrix(0.0126953125,0,0,0.0126953125,9.3564453125,0)" xlink:href="#E"/><use transform="matrix(0.0126953125,0,0,0.0126953125,24.5146484375,0)" xlink:href="#aa"/><use transform="matrix(0.0126953125,0,0,0.0126953125,40.4345703125,0)" xlink:href="#G"/><use transform="matrix(0.0126953125,0,0,0.0126953125,46.7314453125,0)" xlink:href="#M"/><use transform="matrix(0.0126953125,0,0,0.0126953125,56.087890625,0)" xlink:href="#E"/><use transform="matrix(0.0126953125,0,0,0.0126953125,71.24609375,0)" xlink:href="#F"/><use transform="matrix(0.0126953125,0,0,0.0126953125,86.099609375,0)" xlink:href="#L"/><use transform="matrix(0.0126953125,0,0,0.0126953125,94.60546875,0)" xlink:href="#G"/><use transform="matrix(0.0126953125,0,0,0.0126953125,100.90234375,0)" xlink:href="#J"/><use transform="matrix(0.0126953125,0,0,0.0126953125,116.4921875,0)" xlink:href="#K"/></g><path d="M52 0l541-1490h220L1361 0h-200l-149-416H398L254 0H52zm404-582h497c-103-290-145-390-251-756-108 377-145 460-246 756" id="al"/><path d="M338-670V0H158v-1490h180v566c73-149 190-208 336-208 226 0 379 139 379 422V0H872v-695c0-172-96-275-252-275-161 0-282 109-282 300" id="am"/><g id="u"><use transform="matrix(0.0126953125,0,0,0.0126953125,0,0)" xlink:href="#al"/><use transform="matrix(0.0126953125,0,0,0.0126953125,17.9384765625,0)" xlink:href="#W"/><use transform="matrix(0.0126953125,0,0,0.0126953125,33.3125,0)" xlink:href="#L"/><use transform="matrix(0.0126953125,0,0,0.0126953125,41.818359375,0)" xlink:href="#am"/><use transform="matrix(0.0126953125,0,0,0.0126953125,57.1923828125,0)" xlink:href="#I"/><use transform="matrix(0.0126953125,0,0,0.0126953125,76.1845703125,0)" xlink:href="#J"/><use transform="matrix(0.0126953125,0,0,0.0126953125,91.7744140625,0)" xlink:href="#K"/><use transform="matrix(0.0126953125,0,0,0.0126953125,107.1357421875,0)" xlink:href="#L"/><use transform="matrix(0.0126953125,0,0,0.0126953125,115.6416015625,0)" xlink:href="#M"/><use transform="matrix(0.0126953125,0,0,0.0126953125,124.998046875,0)" xlink:href="#J"/><use transform="matrix(0.0126953125,0,0,0.0126953125,140.587890625,0)" xlink:href="#N"/><use transform="matrix(0.0126953125,0,0,0.0126953125,146.884765625,0)" xlink:href="#N"/><use transform="matrix(0.0126953125,0,0,0.0126953125,153.181640625,0)" xlink:href="#E"/><use transform="matrix(0.0126953125,0,0,0.0126953125,168.33984375,0)" xlink:href="#M"/><path d="M-1.3 5.3h180.73v1.8H-1.3z"/></g><g id="v"><use transform="matrix(0.0126953125,0,0,0.0126953125,0,0)" xlink:href="#T"/><use transform="matrix(0.0126953125,0,0,0.0126953125,14.701171875,0)" xlink:href="#J"/><use transform="matrix(0.0126953125,0,0,0.0126953125,30.291015625,0)" xlink:href="#Q"/><use transform="matrix(0.0126953125,0,0,0.0126953125,46.236328125,0)" xlink:href="#G"/><use transform="matrix(0.0126953125,0,0,0.0126953125,52.533203125,0)" xlink:href="#K"/></g><path d="M1096 418H916v-591h-14C865-111 790 24 577 24c-279 0-473-224-473-580 0-354 195-576 474-576 218 0 287 134 324 193h20v-179h174V418zM604-137c203 0 314-172 314-421 0-247-108-413-314-413-212 0-317 181-317 413 0 235 108 421 317 421" id="an"/><g id="w"><use transform="matrix(0.0126953125,0,0,0.0126953125,0,0)" xlink:href="#M"/><use transform="matrix(0.0126953125,0,0,0.0126953125,9.3564453125,0)" xlink:href="#E"/><use transform="matrix(0.0126953125,0,0,0.0126953125,24.5146484375,0)" xlink:href="#an"/><use transform="matrix(0.0126953125,0,0,0.0126953125,40.4345703125,0)" xlink:href="#W"/><use transform="matrix(0.0126953125,0,0,0.0126953125,55.80859375,0)" xlink:href="#E"/><use transform="matrix(0.0126953125,0,0,0.0126953125,70.966796875,0)" xlink:href="#P"/><use transform="matrix(0.0126953125,0,0,0.0126953125,84.6904296875,0)" xlink:href="#L"/></g><path d="M140 405l46-156c120 36 205 19 263-150l32-93L54-1118h197c107 313 237 620 324 950 87-331 219-637 326-950h196L606 167c-68 178-176 259-334 259-64 0-113-12-132-21" id="ao"/><g id="x"><use transform="matrix(0.0126953125,0,0,0.0126953125,0,0)" xlink:href="#Z"/><use transform="matrix(0.0126953125,0,0,0.0126953125,16.6181640625,0)" xlink:href="#E"/><use transform="matrix(0.0126953125,0,0,0.0126953125,31.7763671875,0)" xlink:href="#M"/><use transform="matrix(0.0126953125,0,0,0.0126953125,41.970703125,0)" xlink:href="#G"/><use transform="matrix(0.0126953125,0,0,0.0126953125,48.267578125,0)" xlink:href="#Y"/><use transform="matrix(0.0126953125,0,0,0.0126953125,57.890625,0)" xlink:href="#ao"/></g><g id="y"><use transform="matrix(0.0126953125,0,0,0.0126953125,0,0)" xlink:href="#W"/><use transform="matrix(0.0126953125,0,0,0.0126953125,15.3740234375,0)" xlink:href="#P"/><use transform="matrix(0.0126953125,0,0,0.0126953125,29.09765625,0)" xlink:href="#E"/><use transform="matrix(0.0126953125,0,0,0.0126953125,44.255859375,0)" xlink:href="#M"/></g><g id="z"><use transform="matrix(0.0126953125,0,0,0.0126953125,0,0)" xlink:href="#Z"/><use transform="matrix(0.0126953125,0,0,0.0126953125,16.6181640625,0)" xlink:href="#V"/><use transform="matrix(0.0126953125,0,0,0.0126953125,31.2177734375,0)" xlink:href="#N"/><use transform="matrix(0.0126953125,0,0,0.0126953125,37.5146484375,0)" xlink:href="#G"/><use transform="matrix(0.0126953125,0,0,0.0126953125,43.8115234375,0)" xlink:href="#aa"/></g><g id="A"><use transform="matrix(0.0126953125,0,0,0.0126953125,0,0)" xlink:href="#W"/><use transform="matrix(0.0126953125,0,0,0.0126953125,15.3740234375,0)" xlink:href="#P"/><use transform="matrix(0.0126953125,0,0,0.0126953125,29.09765625,0)" xlink:href="#E"/><use transform="matrix(0.0126953125,0,0,0.0126953125,44.255859375,0)" xlink:href="#M"/></g><g id="B"><use transform="matrix(0.0126953125,0,0,0.0126953125,0,0)" xlink:href="#al"/><use transform="matrix(0.0126953125,0,0,0.0126953125,17.9384765625,0)" xlink:href="#W"/><use transform="matrix(0.0126953125,0,0,0.0126953125,33.3125,0)" xlink:href="#L"/><use transform="matrix(0.0126953125,0,0,0.0126953125,41.818359375,0)" xlink:href="#am"/><use transform="matrix(0.0126953125,0,0,0.0126953125,57.1923828125,0)" xlink:href="#E"/><use transform="matrix(0.0126953125,0,0,0.0126953125,72.3505859375,0)" xlink:href="#K"/><use transform="matrix(0.0126953125,0,0,0.0126953125,87.7119140625,0)" xlink:href="#L"/><use transform="matrix(0.0126953125,0,0,0.0126953125,96.2177734375,0)" xlink:href="#G"/><use transform="matrix(0.0126953125,0,0,0.0126953125,102.5146484375,0)" xlink:href="#F"/><use transform="matrix(0.0126953125,0,0,0.0126953125,117.6220703125,0)" xlink:href="#V"/><use transform="matrix(0.0126953125,0,0,0.0126953125,132.2216796875,0)" xlink:href="#L"/><use transform="matrix(0.0126953125,0,0,0.0126953125,140.4736328125,0)" xlink:href="#E"/><use transform="matrix(0.0126953125,0,0,0.0126953125,155.6318359375,0)" xlink:href="#aa"/></g><g id="C"><use transform="matrix(0.0126953125,0,0,0.0126953125,0,0)" xlink:href="#P"/><use transform="matrix(0.0126953125,0,0,0.0126953125,13.7236328125,0)" xlink:href="#E"/><use transform="matrix(0.0126953125,0,0,0.0126953125,28.8818359375,0)" xlink:href="#P"/><use transform="matrix(0.0126953125,0,0,0.0126953125,42.60546875,0)" xlink:href="#P"/><use transform="matrix(0.0126953125,0,0,0.0126953125,56.3291015625,0)" xlink:href="#G"/><use transform="matrix(0.0126953125,0,0,0.0126953125,62.6259765625,0)" xlink:href="#J"/><use transform="matrix(0.0126953125,0,0,0.0126953125,78.2158203125,0)" xlink:href="#K"/></g></defs></g></svg>