<svg xmlns="http://www.w3.org/2000/svg" xmlns:xlink="http://www.w3.org/1999/xlink" xmlns:lucid="lucid" width="2176" height="1683"><g transform="translate(761 1301)" lucid:page-tab-id="0_0"><path d="M-1000-1500h2500V500h-2500z" fill="#fff"/><path d="M100-1294a6 6 0 0 1 6-6h362a6 6 0 0 1 6 6v321a6 6 0 0 1-6 6H106a6 6 0 0 1-6-6z" stroke="#000" stroke-width="2" fill="#fff"/><path d="M100-1257.1h374m-374 161.17h374" stroke="#000" stroke-width="2" fill="none"/><use xlink:href="#a" transform="matrix(1,0,0,1,108,-1292) translate(154.00086805555554 21.58376736111111)"/><use xlink:href="#b" transform="matrix(1,0,0,1,112,-1249.1119791666667) translate(0 32.685329861111114)"/><use xlink:href="#c" transform="matrix(1,0,0,1,112,-1249.1119791666667) translate(12.5 32.685329861111114)"/><use xlink:href="#d" transform="matrix(1,0,0,1,112,-1249.1119791666667) translate(54.361979166666664 32.685329861111114)"/><use xlink:href="#b" transform="matrix(1,0,0,1,112,-1249.1119791666667) translate(0 64.95095486111111)"/><use xlink:href="#e" transform="matrix(1,0,0,1,112,-1249.1119791666667) translate(12.5 64.95095486111111)"/><use xlink:href="#f" transform="matrix(1,0,0,1,112,-1249.1119791666667) translate(93.40277777777779 64.95095486111111)"/><use xlink:href="#b" transform="matrix(1,0,0,1,112,-1249.1119791666667) translate(0 97.21657986111111)"/><use xlink:href="#g" transform="matrix(1,0,0,1,112,-1249.1119791666667) translate(12.5 97.21657986111111)"/><use xlink:href="#f" transform="matrix(1,0,0,1,112,-1249.1119791666667) translate(91.03732638888889 97.21657986111111)"/><use xlink:href="#b" transform="matrix(1,0,0,1,112,-1249.1119791666667) translate(0 129.48220486111111)"/><use xlink:href="#h" transform="matrix(1,0,0,1,112,-1249.1119791666667) translate(12.5 129.48220486111111)"/><use xlink:href="#i" transform="matrix(1,0,0,1,112,-1249.1119791666667) translate(137.84722222222223 129.48220486111111)"/><use xlink:href="#b" transform="matrix(1,0,0,1,112,-1087.9270833333335) translate(0 32.318142361111114)"/><use xlink:href="#j" transform="matrix(1,0,0,1,112,-1087.9270833333335) translate(12.5 32.318142361111114)"/><use xlink:href="#b" transform="matrix(1,0,0,1,112,-1087.9270833333335) translate(0 64.58376736111111)"/><use xlink:href="#k" transform="matrix(1,0,0,1,112,-1087.9270833333335) translate(12.5 64.58376736111111)"/><use xlink:href="#b" transform="matrix(1,0,0,1,112,-1087.9270833333335) translate(0 96.84939236111111)"/><use xlink:href="#l" transform="matrix(1,0,0,1,112,-1087.9270833333335) translate(12.5 96.84939236111111)"/><path d="M-760-874a6 6 0 0 1 6-6h362a6 6 0 0 1 6 6v192a6 6 0 0 1-6 6h-362a6 6 0 0 1-6-6z" stroke="#000" stroke-width="2" fill="#fff"/><path d="M-760-837.1h374m-374 64.38h374" stroke="#000" stroke-width="2" fill="none"/><use xlink:href="#m" transform="matrix(1,0,0,1,-752,-872) translate(144.38715277777777 21.58376736111111)"/><use xlink:href="#b" transform="matrix(1,0,0,1,-748,-764.7239583333333) translate(0 32.450954861111114)"/><use xlink:href="#n" transform="matrix(1,0,0,1,-748,-764.7239583333333) translate(12.5 32.450954861111114)"/><use xlink:href="#b" transform="matrix(1,0,0,1,-748,-764.7239583333333) translate(0 64.71657986111111)"/><use xlink:href="#o" transform="matrix(1,0,0,1,-748,-764.7239583333333) translate(12.5 64.71657986111111)"/><path d="M100-814a6 6 0 0 1 6-6h362a6 6 0 0 1 6 6v515a6 6 0 0 1-6 6H106a6 6 0 0 1-6-6z" stroke="#000" stroke-width="2" fill="#fff"/><path d="M100-777.1h374M100-519.14h374" stroke="#000" stroke-width="2" fill="none"/><use xlink:href="#p" transform="matrix(1,0,0,1,108,-812) translate(142.54796006944446 21.58376736111111)"/><use xlink:href="#b" transform="matrix(1,0,0,1,112,-769.1119791666666) translate(0 32.28689236111112)"/><use xlink:href="#c" transform="matrix(1,0,0,1,112,-769.1119791666666) translate(12.5 32.28689236111112)"/><use xlink:href="#d" transform="matrix(1,0,0,1,112,-769.1119791666666) translate(54.361979166666664 32.28689236111112)"/><use xlink:href="#b" transform="matrix(1,0,0,1,112,-769.1119791666666) translate(0 64.55251736111111)"/><use xlink:href="#q" transform="matrix(1,0,0,1,112,-769.1119791666666) translate(12.5 64.55251736111111)"/><use xlink:href="#f" transform="matrix(1,0,0,1,112,-769.1119791666666) translate(73.6328125 64.55251736111111)"/><use xlink:href="#b" transform="matrix(1,0,0,1,112,-769.1119791666666) translate(0 96.81814236111111)"/><use xlink:href="#r" transform="matrix(1,0,0,1,112,-769.1119791666666) translate(12.5 96.81814236111111)"/><use xlink:href="#s" transform="matrix(1,0,0,1,112,-769.1119791666666) translate(153.16840277777777 96.81814236111111)"/><use xlink:href="#b" transform="matrix(1,0,0,1,112,-769.1119791666666) translate(0 129.08376736111111)"/><use xlink:href="#t" transform="matrix(1,0,0,1,112,-769.1119791666666) translate(12.5 129.08376736111111)"/><use xlink:href="#s" transform="matrix(1,0,0,1,112,-769.1119791666666) translate(92.44791666666667 129.08376736111111)"/><use xlink:href="#b" transform="matrix(1,0,0,1,112,-769.1119791666666) translate(0 161.34939236111111)"/><use xlink:href="#u" transform="matrix(1,0,0,1,112,-769.1119791666666) translate(12.5 161.34939236111111)"/><use xlink:href="#f" transform="matrix(1,0,0,1,112,-769.1119791666666) translate(99.28385416666667 161.34939236111111)"/><use xlink:href="#b" transform="matrix(1,0,0,1,112,-769.1119791666666) translate(0 193.61501736111111)"/><use xlink:href="#v" transform="matrix(1,0,0,1,112,-769.1119791666666) translate(12.5 193.61501736111111)"/><use xlink:href="#w" transform="matrix(1,0,0,1,112,-769.1119791666666) translate(137.5 193.61501736111111)"/><use xlink:href="#b" transform="matrix(1,0,0,1,112,-769.1119791666666) translate(0 225.88064236111111)"/><use xlink:href="#x" transform="matrix(1,0,0,1,112,-769.1119791666666) translate(12.5 225.88064236111111)"/><use xlink:href="#y" transform="matrix(1,0,0,1,112,-769.1119791666666) translate(189.95225694444443 225.88064236111111)"/><use xlink:href="#b" transform="matrix(1,0,0,1,112,-511.13020833333326) translate(0 32.41970486111112)"/><use xlink:href="#z" transform="matrix(1,0,0,1,112,-511.13020833333326) translate(12.5 32.41970486111112)"/><use xlink:href="#b" transform="matrix(1,0,0,1,112,-511.13020833333326) translate(0 64.68532986111111)"/><use xlink:href="#A" transform="matrix(1,0,0,1,112,-511.13020833333326) translate(12.5 64.68532986111111)"/><use xlink:href="#b" transform="matrix(1,0,0,1,112,-511.13020833333326) translate(0 96.95095486111111)"/><use xlink:href="#B" transform="matrix(1,0,0,1,112,-511.13020833333326) translate(12.5 96.95095486111111)"/><use xlink:href="#b" transform="matrix(1,0,0,1,112,-511.13020833333326) translate(0 129.21657986111111)"/><use xlink:href="#C" transform="matrix(1,0,0,1,112,-511.13020833333326) translate(12.5 129.21657986111111)"/><use xlink:href="#b" transform="matrix(1,0,0,1,112,-511.13020833333326) translate(0 161.48220486111111)"/><use xlink:href="#D" transform="matrix(1,0,0,1,112,-511.13020833333326) translate(12.5 161.48220486111111)"/><use xlink:href="#b" transform="matrix(1,0,0,1,112,-511.13020833333326) translate(0 193.74782986111111)"/><use xlink:href="#E" transform="matrix(1,0,0,1,112,-511.13020833333326) translate(12.5 193.74782986111111)"/><path d="M-138.7-1134.7l214.55.66v.95l-214.55-.64-75.34 3.03-51 4.22-38.8 4.86-31.1 5.24-25.77 5.46-21.82 5.6-18.77 5.65-16.35 5.7-14.43 5.7-12.84 5.7-11.5 5.7-10.4 5.72-9.43 5.7-8.62 5.73-7.9 5.74-7.3 5.78-6.73 5.8-6.25 5.88-5.82 5.94-5.43 6.03-5.07 6.13-4.75 6.25-4.45 6.4-4.16 6.57-3.9 6.76-3.65 6.97-3.4 7.23-3.16 7.52-2.92 7.85-2.67 8.22-2.4 8.64-2.15 9.12-1.85 9.7-1.52 10.3-1.16 11.07-.76 11.9-.25 12.4-.96-.02.25-12.4v-.02l.74-11.94v-.02l1.17-11.08v-.02l1.53-10.34v-.02l1.86-9.7v-.02l2.13-9.16 2.43-8.68v-.02l2.68-8.23v-.02l2.93-7.86v-.02l3.18-7.53v-.02l3.4-7.26h.02v-.02l3.66-7 3.92-6.78v-.02l4.2-6.58v-.02l4.46-6.42h.02l4.76-6.28v-.02l5.1-6.14v-.02l5.45-6.04h.02v-.02l5.83-5.95 6.28-5.9h.02l6.75-5.83h.02l7.3-5.8 7.94-5.76 8.63-5.74h.02l9.46-5.73h.02l10.4-5.73h.02l11.53-5.72h.02l12.84-5.73h.02l14.45-5.72h.02l16.4-5.7 18.8-5.67h.02l21.82-5.6h.02l25.8-5.47 31.14-5.26h.02l38.82-4.87h.02l51-4.23h.02l75.38-3.03h.02z" stroke="#3a414a" stroke-width=".05" fill="#3a414a"/><path d="M-572.5-881.5l-.02.5h-.95v-.53z" fill="#3a414a"/><path stroke="#3a414a" stroke-width=".05" fill="#3a414a"/><path d="M98-1133.5l-21.7 12.43.1-25z" fill="#fff"/><path d="M98.95-1133.5l-23.12 13.25.08-26.64zm-22.16 11.6l20.25-11.6-20.2-11.74z" stroke="#3a414a" stroke-width=".05" fill="#3a414a"/><path d="M287-821.5v-144" stroke="#3a414a" stroke-linejoin="round" fill="none"/><path d="M287.48-821h-.95v-.5h.95zM287.48-965.5h-.95v-.5h.95z" stroke="#3a414a" stroke-width=".05" fill="#3a414a"/><path d="M-60 86a6 6 0 0 1 6-6h362a6 6 0 0 1 6 6v224a6 6 0 0 1-6 6H-54a6 6 0 0 1-6-6z" stroke="#000" stroke-width="2" fill="#fff"/><path d="M-60 122.9h374M-60 251.8h374" stroke="#000" stroke-width="2" fill="none"/><use xlink:href="#F" transform="matrix(1,0,0,1,-52,88) translate(123.94986979166667 21.58376736111111)"/><use xlink:href="#b" transform="matrix(1,0,0,1,-48,130.88802083333334) translate(0 32.318142361111114)"/><use xlink:href="#c" transform="matrix(1,0,0,1,-48,130.88802083333334) translate(12.5 32.318142361111114)"/><use xlink:href="#d" transform="matrix(1,0,0,1,-48,130.88802083333334) translate(54.361979166666664 32.318142361111114)"/><use xlink:href="#b" transform="matrix(1,0,0,1,-48,130.88802083333334) translate(0 64.58376736111111)"/><use xlink:href="#e" transform="matrix(1,0,0,1,-48,130.88802083333334) translate(12.5 64.58376736111111)"/><use xlink:href="#f" transform="matrix(1,0,0,1,-48,130.88802083333334) translate(93.40277777777779 64.58376736111111)"/><use xlink:href="#b" transform="matrix(1,0,0,1,-48,130.88802083333334) translate(0 96.84939236111111)"/><use xlink:href="#G" transform="matrix(1,0,0,1,-48,130.88802083333334) translate(12.5 96.84939236111111)"/><use xlink:href="#i" transform="matrix(1,0,0,1,-48,130.88802083333334) translate(120.57291666666666 96.84939236111111)"/><use xlink:href="#b" transform="matrix(1,0,0,1,-48,259.80729166666663) translate(0 32.583767361111114)"/><use xlink:href="#H" transform="matrix(1,0,0,1,-48,259.80729166666663) translate(12.5 32.583767361111114)"/><path d="M-560 86a6 6 0 0 1 6-6h362a6 6 0 0 1 6 6v289a6 6 0 0 1-6 6h-362a6 6 0 0 1-6-6z" stroke="#000" stroke-width="2" fill="#fff"/><path d="M-560 122.9h374m-374 128.9h374" stroke="#000" stroke-width="2" fill="none"/><g><use xlink:href="#I" transform="matrix(1,0,0,1,-552,88) translate(126.58116319444444 21.58376736111111)"/></g><g><use xlink:href="#b" transform="matrix(1,0,0,1,-548,130.88802083333334) translate(0 32.318142361111114)"/><use xlink:href="#c" transform="matrix(1,0,0,1,-548,130.88802083333334) translate(12.5 32.318142361111114)"/><use xlink:href="#d" transform="matrix(1,0,0,1,-548,130.88802083333334) translate(54.361979166666664 32.318142361111114)"/><use xlink:href="#b" transform="matrix(1,0,0,1,-548,130.88802083333334) translate(0 64.58376736111111)"/><use xlink:href="#J" transform="matrix(1,0,0,1,-548,130.88802083333334) translate(12.5 64.58376736111111)"/><use xlink:href="#s" transform="matrix(1,0,0,1,-548,130.88802083333334) translate(114.93055555555556 64.58376736111111)"/><use xlink:href="#b" transform="matrix(1,0,0,1,-548,130.88802083333334) translate(0 96.84939236111111)"/><use xlink:href="#v" transform="matrix(1,0,0,1,-548,130.88802083333334) translate(12.5 96.84939236111111)"/><use xlink:href="#K" transform="matrix(1,0,0,1,-548,130.88802083333334) translate(137.5 96.84939236111111)"/></g><g><use xlink:href="#b" transform="matrix(1,0,0,1,-548,259.80729166666663) translate(0 32.318142361111114)"/><use xlink:href="#L" transform="matrix(1,0,0,1,-548,259.80729166666663) translate(12.5 32.318142361111114)"/><use xlink:href="#b" transform="matrix(1,0,0,1,-548,259.80729166666663) translate(0 64.58376736111111)"/><use xlink:href="#M" transform="matrix(1,0,0,1,-548,259.80729166666663) translate(12.5 64.58376736111111)"/><use xlink:href="#b" transform="matrix(1,0,0,1,-548,259.80729166666663) translate(0 96.84939236111111)"/><use xlink:href="#N" transform="matrix(1,0,0,1,-548,259.80729166666663) translate(12.5 96.84939236111111)"/></g><path d="M480 86a6 6 0 0 1 6-6h362a6 6 0 0 1 6 6v224a6 6 0 0 1-6 6H486a6 6 0 0 1-6-6z" stroke="#000" stroke-width="2" fill="#fff"/><path d="M480 122.9h374M480 251.8h374" stroke="#000" stroke-width="2" fill="none"/><g><use xlink:href="#O" transform="matrix(1,0,0,1,488,88) translate(129.02799479166666 21.58376736111111)"/></g><g><use xlink:href="#b" transform="matrix(1,0,0,1,492,130.88802083333334) translate(0 32.318142361111114)"/><use xlink:href="#c" transform="matrix(1,0,0,1,492,130.88802083333334) translate(12.5 32.318142361111114)"/><use xlink:href="#d" transform="matrix(1,0,0,1,492,130.88802083333334) translate(54.361979166666664 32.318142361111114)"/><use xlink:href="#b" transform="matrix(1,0,0,1,492,130.88802083333334) translate(0 64.58376736111111)"/><use xlink:href="#e" transform="matrix(1,0,0,1,492,130.88802083333334) translate(12.5 64.58376736111111)"/><use xlink:href="#f" transform="matrix(1,0,0,1,492,130.88802083333334) translate(93.40277777777779 64.58376736111111)"/><use xlink:href="#b" transform="matrix(1,0,0,1,492,130.88802083333334) translate(0 96.84939236111111)"/><use xlink:href="#r" transform="matrix(1,0,0,1,492,130.88802083333334) translate(12.5 96.84939236111111)"/><use xlink:href="#i" transform="matrix(1,0,0,1,492,130.88802083333334) translate(153.16840277777777 96.84939236111111)"/></g><g><use xlink:href="#b" transform="matrix(1,0,0,1,492,259.80729166666663) translate(0 32.583767361111114)"/><use xlink:href="#P" transform="matrix(1,0,0,1,492,259.80729166666663) translate(12.5 32.583767361111114)"/></g><path d="M1040 86a6 6 0 0 1 6-6h362a6 6 0 0 1 6 6v192a6 6 0 0 1-6 6h-362a6 6 0 0 1-6-6z" stroke="#000" stroke-width="2" fill="#fff"/><path d="M1040 122.9h374m-374 64.38h374" stroke="#000" stroke-width="2" fill="none"/><g><use xlink:href="#Q" transform="matrix(1,0,0,1,1048,88) translate(135.42990451388889 21.58376736111111)"/></g><g><use xlink:href="#b" transform="matrix(1,0,0,1,1052,130.88802083333334) translate(0 32.583767361111114)"/><use xlink:href="#c" transform="matrix(1,0,0,1,1052,130.88802083333334) translate(12.5 32.583767361111114)"/><use xlink:href="#R" transform="matrix(1,0,0,1,1052,130.88802083333334) translate(54.361979166666664 32.583767361111114)"/></g><g><use xlink:href="#b" transform="matrix(1,0,0,1,1052,195.27604166666669) translate(0 32.450954861111114)"/><use xlink:href="#L" transform="matrix(1,0,0,1,1052,195.27604166666669) translate(12.5 32.450954861111114)"/><use xlink:href="#b" transform="matrix(1,0,0,1,1052,195.27604166666669) translate(0 64.71657986111111)"/><use xlink:href="#S" transform="matrix(1,0,0,1,1052,195.27604166666669) translate(12.5 64.71657986111111)"/></g><path d="M1227.46 78.47l-.94.02-1.04-49.85h.95zm-677.7-1208.6h.02l27.5 3.46 26.36 4.46h.02l25.35 5.38h.02l24.48 6.28h.02l23.7 7.16 23.03 8.02h.02l22.42 8.9 21.92 9.75h.02l21.47 10.65h.02l21.1 11.6v.02l20.78 12.58h.02l20.5 13.64h.02l20.3 14.75h.02L869-997.47l20 17.28h.02l19.92 18.72v.02l19.88 20.3h.02l19.84 22.05h.02l19.84 24v.02l19.88 26.18v.02l19.9 28.63v.02l19.92 31.38v.02l19.92 34.5v.02l19.9 38.05v.02l19.8 42.07v.02l19.6 46.64v.02l19.25 51.85h.02l18.74 57.75v.02l17.95 64.36h.02v.02l16.8 71.75v.02l15.2 79.8 13.02 88.35v.02l10.16 96.9v.02l6.57 104.75v.02l.8 38.97h-.94l-.8-38.94-6.58-104.74-10.15-96.88-13-88.32-15.2-79.8-16.8-71.7-17.95-64.36-18.73-57.7-19.25-51.84-19.6-46.62-19.76-42.06-19.86-38.03-19.9-34.5-19.9-31.37-19.88-28.6-19.86-26.17-19.83-23.98-19.83-22.03-19.86-20.3-19.9-18.7-20-17.25-20.1-15.94-20.3-14.73-20.48-13.6-20.75-12.58-21.08-11.6-21.44-10.65-21.9-9.74-22.4-8.87-23-8-23.68-7.15-24.45-6.27-25.33-5.38-26.33-4.44-27.46-3.47-8.65-.7v-.97zm-59.03-3.68l24.7 1.02v.95l-24.72-1.03-15.2-.16v-.95z" stroke="#3a414a" stroke-width=".05" fill="#3a414a"/><path d="M1227.48 79h-.95v-.52l.93-.02z" fill="#3a414a"/><path stroke="#3a414a" stroke-width=".05" fill="#3a414a"/><path d="M475.52-1133.97v.95H475v-.95z" fill="#3a414a"/><path stroke="#3a414a" stroke-width=".05" fill="#3a414a"/><g><use xlink:href="#T" transform="matrix(1,0,0,1,515.4310703307897,-1142.220063072928) translate(0 17.22222222222222)"/></g><g><use xlink:href="#U" transform="matrix(1,0,0,1,1209.0892093235652,7.143354948347191) translate(0 17.22222222222222)"/></g><path d="M1007.3 178.24l6.1 1.16 6.18.92 6.3.66 6.47.4 6.15.13-.02.96-6.16-.12h-.02l-6.48-.4h-.02l-6.33-.68h-.02l-6.2-.92h-.02l-6.12-1.17-1.63-.38v-1zM536.93-543.88h.02l6.04 2.85 6.12 3.2v.02h.02l6.2 3.58h.02l6.34 4.03v.02h.02l6.5 4.52h.02l6.7 5.1v.02l6.95 5.74 7.24 6.52v.02l7.58 7.42h.02l8 8.53 8.5 9.86v.02l9.13 11.52h.02l9.9 13.66 10.9 16.44v.02l12.25 20.25v.02l14.17 25.8 17.24 34.8v.04L804.5-68.1 828-15.04l17.22 34.78 14.14 25.8 12.24 20.22 10.9 16.4 9.88 13.64 9.1 11.5 8.5 9.85 7.97 8.5 7.56 7.4 7.22 6.5 6.93 5.74 6.68 5.08 6.5 4.5 6.3 4.03 6.2 3.58 6.1 3.2.76.35v1.05l-1.2-.55-6.12-3.2v-.02l-6.23-3.58-6.35-4.03v-.02h-.02l-6.5-4.52h-.02l-6.7-5.1v-.02l-6.95-5.74-7.23-6.53h-.02l-7.57-7.43v-.02l-8-8.5v-.02h-.02l-8.5-9.86v-.02l-9.13-11.52-9.92-13.66-10.9-16.44v-.02l-12.25-20.25V46l-14.17-25.8-17.23-34.8v-.02L803.6-67.75 686-359.5l-17.22-34.78-14.14-25.8-12.24-20.22-10.9-16.4-9.88-13.64-9.1-11.5-8.5-9.85-7.97-8.5-7.56-7.4-7.22-6.5-6.92-5.74-6.7-5.08-6.47-4.5-6.34-4.03-6.2-3.58-6.08-3.2-6.02-2.82-5.26-2.22v-1.03zm-55.25-12.96h.02l6.48.4h.02l6.33.68h.02l6.2.92h.02l4.93.94v.97l-5.1-.97-6.18-.92-6.3-.66-6.47-.4-6.16-.13v-.97z" stroke="#3a414a" stroke-width=".05" fill="#3a414a"/><path d="M1039 181.53v.94h-.53l.02-.96z" fill="#3a414a"/><path stroke="#3a414a" stroke-width=".05" fill="#3a414a"/><path d="M475.5-556.98v.96h-.5v-.96z" fill="#3a414a"/><path stroke="#3a414a" stroke-width=".05" fill="#3a414a"/><g><use xlink:href="#T" transform="matrix(1,0,0,1,505.6997672616788,-560.9630535846418) translate(0 17.22222222222222)"/></g><g><use xlink:href="#U" transform="matrix(1,0,0,1,972.1872996127881,162.78041126251688) translate(0 17.22222222222222)"/></g><path d="M-372.52 78.5l-.95-.02.97-174.94h.95zM-72.4-1101.53l-.72.3-13.67 6.07-13.17 6.55-12.76 7-12.4 7.52-12.06 8-11.78 8.58-11.56 9.16-11.35 9.8-11.18 10.5-11.05 11.3-10.94 12.16-10.87 13.14-10.8 14.24-10.78 15.5-10.75 16.95-10.75 18.63-10.76 20.6-10.77 22.9-10.78 25.68-10.78 29.03-10.76 33.12-10.67 38.3-10.5 44.9-10.22 53.7-9.68 65.93-8.8 84.4-7.2 116.97-1.5 272.6h-.95l1.5-272.62v-.02l7.2-117v-.02l8.8-84.42v-.02l9.7-65.96 10.2-53.73v-.02l10.52-44.9v-.02l10.7-38.32v-.02l10.75-33.16 10.78-29.06 10.8-25.7v-.02l10.8-22.93v-.02l10.76-20.6v-.02l10.77-18.66h.02v-.02l10.77-16.97 10.78-15.53v-.02l10.83-14.26h.02l10.88-13.16 10.97-12.18v-.02h.02l11.05-11.3 11.22-10.54 11.38-9.82.02-.02 11.57-9.17 11.82-8.6h.02l12.08-8.03h.02l12.4-7.53h.02v-.02l12.78-7.02h.02l13.2-6.56h.02l13.7-6.1 1.1-.44zm170.9-31.5l-11.53.12-22.7.95-21.02 1.76-19.63 2.48-18.4 3.1-17.3 3.7-16.4 4.2-15.57 4.7-2.75.95v-1l2.45-.86h.02l15.6-4.7v-.02l16.4-4.2h.02l17.34-3.7h.02l18.42-3.1h.02l19.64-2.5h.02l21.06-1.75h.02l22.7-.95 11.56-.12z" stroke="#3a414a" stroke-width=".05" fill="#3a414a"/><path d="M-372.52 78.47V79h-.95v-.53z" fill="#3a414a"/><path stroke="#3a414a" stroke-width=".05" fill="#3a414a"/><path d="M99-1133.03h-.5l-.02-.94H99z" fill="#3a414a"/><path stroke="#3a414a" stroke-width=".05" fill="#3a414a"/><g><use xlink:href="#T" transform="matrix(1,0,0,1,-72.39397737212033,-1117.8494484576122) translate(0 17.22222222222222)"/></g><g><use xlink:href="#U" transform="matrix(1,0,0,1,-388.6086755637828,-117.97346920649045) translate(0 17.22222222222222)"/></g><path d="M-359.45-78.57l-5.6 37.93-4.1 39.16-2.53 40-.83 39.98-.96-.02.83-39.98v-.02l2.52-40.03v-.02l4.1-39.18v-.02l5.6-37.95v-.02l3.4-17.72h.96zm15.07-71.1L-352.5-115l-2.83 14.8v-5.07l1.9-9.9v-.02l8.13-34.7v-.02l2.8-10h.98zm392.5-403.44l-13.67 1.72-17.04 2.88-16.54 3.52-16.1 4.13-15.7 4.74-15.36 5.34-15.04 5.95-14.78 6.57-14.54 7.22-14.33 7.87-14.14 8.57-14 9.3-13.85 10.06-13.72 10.9-13.62 11.75-13.52 12.7-13.43 13.7-13.3 14.8-13.22 16-13.1 17.23-12.92 18.6-12.74 20.1-12.5 21.66-12.2 23.35-11.82 25.1-11.34 27-10.75 28.93-10.02 30.87-.3 1.07h-.98l.37-1.33v-.02l10.04-30.9v-.02l10.77-28.93v-.02l11.36-27v-.02l11.83-25.15v-.02l12.22-23.37v-.02l12.52-21.68v-.02l12.76-20.1v-.02l12.96-18.63 13.1-17.27.02-.02 13.22-16h.02L-202-426.8h.02v-.02l13.44-13.72h.02v-.02l13.53-12.7h.02v-.02l13.65-11.78 13.76-10.9v-.02h.02l13.87-10.08 14.02-9.32h.02l14.17-8.6 14.36-7.9 14.57-7.22 14.8-6.6h.02l15.06-5.97h.02l15.38-5.36v-.02l15.74-4.74h.02l16.12-4.15h.02l16.56-3.53h.02l17.06-2.9h.02l13.8-1.74zm50.38-2.92l-9.26.1-15.5.64v-.95l15.47-.64h.02l9.28-.1z" stroke="#3a414a" stroke-width=".05" fill="#3a414a"/><path d="M-372.5 78.5l-.02.5h-.95v-.53z" fill="#3a414a"/><path stroke="#3a414a" stroke-width=".05" fill="#3a414a"/><path d="M99-556.02h-.5l-.02-.95H99z" fill="#3a414a"/><path stroke="#3a414a" stroke-width=".05" fill="#3a414a"/><g><use xlink:href="#U" transform="matrix(1,0,0,1,-355.6529848133045,-181.4255494045453) translate(0 17.22222222222222)"/></g><g><use xlink:href="#T" transform="matrix(1,0,0,1,48.1305588422871,-565.5785092960202) translate(0 17.22222222222222)"/></g><path d="M129.63 43.4l-1.15 10.9-.74 11.82-.25 12.38-.96-.02.25-12.4.73-11.84v-.02l1.15-10.94v-.02l.83-5.57h.97zM274.6-209.87h-.02v.02l-3.1 8.32v.02l-3.47 8.24v.02l-3.88 8.25v.02l-4.4 8.4v.02l-5.04 8.7v.02l-5.92 9.3v.02l-7.27 10.44h-.02v.02L183.05-77.2l-9.78 12.84-7.24 10.4-5.9 9.3-5.02 8.7-4.38 8.37-3.88 8.24-3.46 8.22-3.1 8.3-2.74 8.5-2.45 8.77-.4 1.75h-.98l.47-1.98v-.02l2.44-8.8 2.78-8.52v-.02l3.1-8.32v-.02l3.47-8.24v-.02l3.88-8.25v-.02l4.4-8.4v-.02l5.04-8.7v-.02l5.93-9.32 7.26-10.44h.02l9.8-12.87 58.4-70.84 7.24-10.4 5.9-9.3 5.03-8.7 4.37-8.37 3.87-8.24 3.46-8.22 3.1-8.3 1.08-3.37h1zm12.87-81.63l-.26 12.4v.02l-.73 11.84v.02l-1.15 10.94v.02l-1.5 10.22v.02l-1.85 9.64v.02l-.32 1.32h-.97l.36-1.53 1.83-9.62 1.5-10.2 1.15-10.9.74-11.82.26-12.4z" stroke="#3a414a" stroke-width=".05" fill="#3a414a"/><path d="M127.5 78.5l-.02.5h-.95v-.53z" fill="#3a414a"/><path stroke="#3a414a" stroke-width=".05" fill="#3a414a"/><path d="M287.48-291.5h-.95v-.5h.95z" fill="#3a414a"/><path stroke="#3a414a" stroke-width=".05" fill="#3a414a"/><g><use xlink:href="#V" transform="matrix(1,0,0,1,117.10016025161345,16.179416350573224) translate(0 17.22222222222222)"/></g><g><use xlink:href="#T" transform="matrix(1,0,0,1,265.710847685505,-235.04266150842963) translate(0 17.22222222222222)"/></g><path d="M660.73 38.22v.02l1.55 4.74V43l1.34 4.8v.02l1.15 4.86v.02l.95 4.96v.02l.75 5.07v.02l.55 5.2V68l.34 5.4.1 5.08-.94.02-.1-5.06-.35-5.36-.54-5.2-.75-5.05-.94-4.94-1.14-4.85-1.33-4.78-1.1-3.38h.18v-2.4zM330.86-196.3l6.54 6.15 7.64 6.58 9.05 7.17 10.96 7.96 13.75 9.12 18.3 11.04L529.33-80.9l28.03 15.35h.02l18.3 11.07h.02l13.77 9.14h.02l10.98 7.98 9.08 7.2 7.67 6.6 6.57 6.17v.02h.02l5.7 5.82 5 5.55 4.4 5.32h.02v.02l3.9 5.14h.02v.02l3.48 5v.02l3.12 4.9 2.8 4.82v.02l.53 1v2.06l-1.38-2.6-2.77-4.8-3.1-4.9-3.46-4.97-3.9-5.13-4.4-5.3-4.97-5.52-5.7-5.8-6.53-6.15-7.64-6.58-9.05-7.17-10.96-7.95-13.75-9.13-18.3-11.04-28-15.34-132.25-67.38h-.02v-.02l-18.32-11.06-13.77-9.14h-.02l-10.97-7.98h-.02l-9.06-7.2-7.66-6.6h-.02v-.02l-6.56-6.15v-.02l-4.4-4.5h1.32zm-43.27-90.13l.33 5.36.54 5.2.75 5.04.94 4.94 1.14 4.85 1.33 4.78 1.54 4.73 1.75 4.7 1.97 4.7 2.2 4.7 2.48 4.73 2.77 4.8 3.1 4.87.98 1.4h-1.15l-.62-.87-3.1-4.9h-.02v-.02l-2.78-4.82v-.02l-2.5-4.75v-.02l-2.23-4.73v-.02l-2-4.7v-.02l-1.75-4.72v-.02l-1.55-4.75-1.35-4.8v-.02l-1.14-4.86v-.02l-.95-4.96h-.02v-.02l-.75-5.07v-.02l-.55-5.22-.34-5.4-.1-5.1h.95z" stroke="#3a414a" stroke-width=".05" fill="#3a414a"/><path d="M667.48 79h-.95v-.5l.94-.03z" fill="#3a414a"/><path stroke="#3a414a" stroke-width=".05" fill="#3a414a"/><path d="M287.48-291.5h-.95v-.5h.95z" fill="#3a414a"/><path stroke="#3a414a" stroke-width=".05" fill="#3a414a"/><g><use xlink:href="#U" transform="matrix(1,0,0,1,300.25548750532465,-221.61880359613218) translate(0 17.22222222222222)"/></g><g><use xlink:href="#W" transform="matrix(1,0,0,1,652.7882031956436,18.38022802059148) translate(0 17.22222222222222)"/></g><defs><path d="M750 21c-371 0-615-218-615-544v-967h305v942c0 174 123 299 310 299s309-125 309-299v-942h306v967c0 326-247 544-615 544" id="X"/><path d="M572 22C302 22 117-98 78-306l279-48c29 105 101 156 224 156 114 0 185-48 185-115 0-118-228-130-337-155-215-49-322-150-322-317 0-215 187-347 470-347 265 0 424 116 466 298l-266 47c-24-76-87-130-196-130-98 0-174 46-174 113 0 56 38 95 144 117l201 40c216 44 320 143 320 302 0 220-207 367-500 367" id="Y"/><path d="M633 22C291 22 81-200 81-553c0-345 210-579 537-579 292 0 525 185 525 567v84H378c7 183 109 277 260 277 105 0 184-46 216-132l272 51C1071-99 893 22 633 22zM380-669h474c-15-146-94-237-233-237-143 0-229 99-241 237" id="Z"/><path d="M128 0v-1118h290v195h12c54-169 184-238 367-200v268c-27-8-86-15-130-15-138 0-239 95-239 234V0H128" id="aa"/><g id="a"><use transform="matrix(0.010850694444444444,0,0,0.010850694444444444,0,0)" xlink:href="#X"/><use transform="matrix(0.010850694444444444,0,0,0.010850694444444444,16.26519097222222,0)" xlink:href="#Y"/><use transform="matrix(0.010850694444444444,0,0,0.010850694444444444,28.7109375,0)" xlink:href="#Z"/><use transform="matrix(0.010850694444444444,0,0,0.010850694444444444,41.94878472222222,0)" xlink:href="#aa"/></g><path d="M798-719v166H144v-166h654" id="ab"/><path d="M158 0v-1118h180V0H158zm91-1301c-68 0-125-53-125-119s57-119 125-119c69 0 126 53 126 119s-57 119-126 119" id="ac"/><path d="M577 24c-279 0-473-224-473-580 0-354 195-576 474-576 218 0 287 134 324 193h14v-551h180V0H922v-173h-20C865-111 790 24 577 24zm27-161c203 0 314-172 314-421 0-247-108-413-314-413-212 0-317 181-317 413 0 235 108 421 317 421" id="ad"/><path d="M295 13c-75 0-135-60-135-135s60-135 135-135 135 60 135 135S370 13 295 13zm0-809c-75 0-135-60-135-135s60-135 135-135 135 60 135 135-60 135-135 135" id="ae"/><g id="c"><use transform="matrix(0.010850694444444444,0,0,0.010850694444444444,0,0)" xlink:href="#ab"/><use transform="matrix(0.010850694444444444,0,0,0.010850694444444444,10.221354166666666,0)" xlink:href="#ac"/><use transform="matrix(0.010850694444444444,0,0,0.010850694444444444,15.60329861111111,0)" xlink:href="#ad"/><use transform="matrix(0.010850694444444444,0,0,0.010850694444444444,29.210069444444443,0)" xlink:href="#ae"/></g><path d="M338-670V0H158v-1118h173l1 207c72-158 192-221 342-221 226 0 378 139 378 422V0H872v-695c0-172-96-275-252-275-161 0-282 109-282 300" id="af"/><path d="M598-1118v154H368v674c0 100 37 144 132 144 23 0 62-6 92-12L629-6c-37 13-88 20-134 20-193 0-307-107-307-290v-688H20v-154h168v-266h180v266h230" id="ag"/><g id="d"><use transform="matrix(0.010850694444444444,0,0,0.010850694444444444,0,0)" xlink:href="#ac"/><use transform="matrix(0.010850694444444444,0,0,0.010850694444444444,5.381944444444445,0)" xlink:href="#af"/><use transform="matrix(0.010850694444444444,0,0,0.010850694444444444,18.51128472222222,0)" xlink:href="#ag"/></g><path d="M471 26C259 26 90-98 90-318c0-256 228-303 435-329 202-27 287-16 287-108 0-139-79-219-234-219-161 0-248 86-283 164l-173-57c86-203 278-265 451-265 150 0 419 46 419 395V0H815v-152h-12C765-73 660 26 471 26zm31-159c199 0 310-134 310-271v-155c-30 35-226 55-295 64-131 17-246 59-246 186 0 116 97 176 231 176" id="ah"/><path d="M158 0v-1118h175l1 205c55-151 181-225 313-225 147 0 245 90 285 228 53-141 190-228 352-228 194 0 352 125 352 384V0h-181v-749c0-161-105-225-225-225-151 0-243 103-243 244V0H807v-767c0-124-93-207-219-207-131 0-250 92-250 270V0H158" id="ai"/><path d="M628 24c-324 0-524-230-524-574 0-343 198-582 503-582 237 0 487 146 487 559v75H286c9 234 145 362 343 362 132 0 231-58 273-172l174 48C1024-91 857 24 628 24zM287-650h624c-17-190-120-322-304-322-192 0-309 151-320 322" id="aj"/><g id="e"><use transform="matrix(0.010850694444444444,0,0,0.010850694444444444,0,0)" xlink:href="#ab"/><use transform="matrix(0.010850694444444444,0,0,0.010850694444444444,10.221354166666666,0)" xlink:href="#af"/><use transform="matrix(0.010850694444444444,0,0,0.010850694444444444,23.350694444444443,0)" xlink:href="#ah"/><use transform="matrix(0.010850694444444444,0,0,0.010850694444444444,35.82899305555556,0)" xlink:href="#ai"/><use transform="matrix(0.010850694444444444,0,0,0.010850694444444444,55.295138888888886,0)" xlink:href="#aj"/><use transform="matrix(0.010850694444444444,0,0,0.010850694444444444,68.25086805555556,0)" xlink:href="#ae"/></g><path d="M538 24C308 24 148-78 108-271l171-41c32 123 123 178 257 178 156 0 256-77 256-169 0-77-54-128-164-154l-186-44c-203-48-300-148-300-305 0-192 176-326 414-326 230 0 351 112 402 269l-163 42c-31-80-94-158-238-158-133 0-233 69-233 162 0 83 57 129 188 160l169 40c203 48 298 149 298 302 0 196-179 339-441 339" id="ak"/><path d="M158 0v-1118h174v172h12c41-113 157-188 290-188 26 0 70 2 91 3v181c-11-2-60-10-108-10-161 0-279 109-279 260V0H158" id="al"/><path d="M611 442c-248 0-391-105-460-228l146-94c47 65 117 165 314 165 178 0 307-82 307-266v-224h-17C863-141 792-18 576-18c-268 0-472-195-472-546 0-346 197-568 476-568 216 0 288 133 326 193h17v-179h175V29c0 289-215 413-487 413zm-5-620c203 0 314-146 314-390 0-237-108-403-314-403-213 0-319 180-319 403 0 230 109 390 319 390" id="am"/><g id="f"><use transform="matrix(0.010850694444444444,0,0,0.010850694444444444,0,0)" xlink:href="#ak"/><use transform="matrix(0.010850694444444444,0,0,0.010850694444444444,11.729600694444445,0)" xlink:href="#ag"/><use transform="matrix(0.010850694444444444,0,0,0.010850694444444444,18.99956597222222,0)" xlink:href="#al"/><use transform="matrix(0.010850694444444444,0,0,0.010850694444444444,27.712673611111104,0)" xlink:href="#ac"/><use transform="matrix(0.010850694444444444,0,0,0.010850694444444444,33.09461805555555,0)" xlink:href="#af"/><use transform="matrix(0.010850694444444444,0,0,0.010850694444444444,46.22395833333333,0)" xlink:href="#am"/></g><path d="M338-1490V0H158v-1490h180" id="an"/><g id="g"><use transform="matrix(0.010850694444444444,0,0,0.010850694444444444,0,0)" xlink:href="#ab"/><use transform="matrix(0.010850694444444444,0,0,0.010850694444444444,10.221354166666666,0)" xlink:href="#aj"/><use transform="matrix(0.010850694444444444,0,0,0.010850694444444444,23.177083333333332,0)" xlink:href="#ai"/><use transform="matrix(0.010850694444444444,0,0,0.010850694444444444,42.643229166666664,0)" xlink:href="#ah"/><use transform="matrix(0.010850694444444444,0,0,0.010850694444444444,55.12152777777778,0)" xlink:href="#ac"/><use transform="matrix(0.010850694444444444,0,0,0.010850694444444444,60.50347222222221,0)" xlink:href="#an"/><use transform="matrix(0.010850694444444444,0,0,0.010850694444444444,65.88541666666666,0)" xlink:href="#ae"/></g><path d="M158 418v-1536h174v179h20c37-59 106-193 324-193 279 0 474 222 474 576 0 356-194 580-473 580-213 0-288-135-325-197h-14v591H158zm492-555c209 0 317-186 317-421 0-232-105-413-317-413-206 0-314 166-314 413 0 249 111 421 314 421" id="ao"/><path d="M409 0L70-1118h191c89 329 165 560 243 925 75-353 154-601 240-925h192c85 325 161 564 235 922 77-354 157-598 244-922h191L1267 0h-179c-86-307-176-590-250-913C763-588 675-308 588 0H409" id="ap"/><path d="M613 24c-304 0-509-231-509-576 0-350 205-580 509-580 305 0 511 230 511 580 0 345-206 576-511 576zm0-161c226 0 329-195 329-415 0-222-103-419-329-419-223 0-326 196-326 419 0 220 103 415 326 415" id="aq"/><g id="h"><use transform="matrix(0.010850694444444444,0,0,0.010850694444444444,0,0)" xlink:href="#ab"/><use transform="matrix(0.010850694444444444,0,0,0.010850694444444444,10.221354166666666,0)" xlink:href="#ao"/><use transform="matrix(0.010850694444444444,0,0,0.010850694444444444,24.04513888888889,0)" xlink:href="#ah"/><use transform="matrix(0.010850694444444444,0,0,0.010850694444444444,36.5234375,0)" xlink:href="#ak"/><use transform="matrix(0.010850694444444444,0,0,0.010850694444444444,48.25303819444444,0)" xlink:href="#ak"/><use transform="matrix(0.010850694444444444,0,0,0.010850694444444444,59.982638888888886,0)" xlink:href="#ap"/><use transform="matrix(0.010850694444444444,0,0,0.010850694444444444,77.76692708333333,0)" xlink:href="#aq"/><use transform="matrix(0.010850694444444444,0,0,0.010850694444444444,91.09157986111111,0)" xlink:href="#al"/><use transform="matrix(0.010850694444444444,0,0,0.010850694444444444,99.08854166666666,0)" xlink:href="#ad"/><use transform="matrix(0.010850694444444444,0,0,0.010850694444444444,112.69531249999997,0)" xlink:href="#ae"/></g><g id="i"><use transform="matrix(0.010850694444444444,0,0,0.010850694444444444,0,0)" xlink:href="#ak"/><use transform="matrix(0.010850694444444444,0,0,0.010850694444444444,11.729600694444445,0)" xlink:href="#ag"/><use transform="matrix(0.010850694444444444,0,0,0.010850694444444444,18.99956597222222,0)" xlink:href="#al"/><use transform="matrix(0.010850694444444444,0,0,0.010850694444444444,27.712673611111104,0)" xlink:href="#ac"/><use transform="matrix(0.010850694444444444,0,0,0.010850694444444444,33.09461805555555,0)" xlink:href="#af"/><use transform="matrix(0.010850694444444444,0,0,0.010850694444444444,46.22395833333333,0)" xlink:href="#am"/></g><path d="M593-100v-404H195v-159h398v-403h169v403h398v159H762v404H593" id="ar"/><path d="M218-607c0-325 108-727 258-974h175c-155 315-250 682-250 974 0 265 78 531 250 886H476C306-10 218-315 218-607" id="as"/><path d="M96 279C273-86 346-350 346-607c0-292-95-659-250-974h175c150 246 258 650 258 974 0 297-91 602-258 886H96" id="at"/><g id="j"><use transform="matrix(0.010850694444444444,0,0,0.010850694444444444,0,0)" xlink:href="#ar"/><use transform="matrix(0.010850694444444444,0,0,0.010850694444444444,14.702690972222221,0)" xlink:href="#al"/><use transform="matrix(0.010850694444444444,0,0,0.010850694444444444,22.69965277777778,0)" xlink:href="#aj"/><use transform="matrix(0.010850694444444444,0,0,0.010850694444444444,35.65538194444444,0)" xlink:href="#am"/><use transform="matrix(0.010850694444444444,0,0,0.010850694444444444,49.283854166666664,0)" xlink:href="#ac"/><use transform="matrix(0.010850694444444444,0,0,0.010850694444444444,54.66579861111111,0)" xlink:href="#ak"/><use transform="matrix(0.010850694444444444,0,0,0.010850694444444444,66.39539930555556,0)" xlink:href="#ag"/><use transform="matrix(0.010850694444444444,0,0,0.010850694444444444,73.44835069444444,0)" xlink:href="#aj"/><use transform="matrix(0.010850694444444444,0,0,0.010850694444444444,86.40407986111111,0)" xlink:href="#al"/><use transform="matrix(0.010850694444444444,0,0,0.010850694444444444,94.7699652777778,0)" xlink:href="#as"/><use transform="matrix(0.010850694444444444,0,0,0.010850694444444444,102.8754340277778,0)" xlink:href="#at"/></g><g id="k"><use transform="matrix(0.010850694444444444,0,0,0.010850694444444444,0,0)" xlink:href="#ar"/><use transform="matrix(0.010850694444444444,0,0,0.010850694444444444,14.702690972222221,0)" xlink:href="#an"/><use transform="matrix(0.010850694444444444,0,0,0.010850694444444444,20.084635416666664,0)" xlink:href="#aq"/><use transform="matrix(0.010850694444444444,0,0,0.010850694444444444,33.40928819444444,0)" xlink:href="#am"/><use transform="matrix(0.010850694444444444,0,0,0.010850694444444444,47.037760416666664,0)" xlink:href="#ac"/><use transform="matrix(0.010850694444444444,0,0,0.010850694444444444,52.41970486111111,0)" xlink:href="#af"/><use transform="matrix(0.010850694444444444,0,0,0.010850694444444444,65.54904513888889,0)" xlink:href="#as"/><use transform="matrix(0.010850694444444444,0,0,0.010850694444444444,73.65451388888889,0)" xlink:href="#at"/></g><path d="M537 14c-226 0-379-139-379-422v-710h180v695c0 172 97 275 253 275 160 0 281-109 281-300v-670h181V0H879v-209C806-46 684 14 537 14" id="au"/><g id="l"><use transform="matrix(0.010850694444444444,0,0,0.010850694444444444,0,0)" xlink:href="#ar"/><use transform="matrix(0.010850694444444444,0,0,0.010850694444444444,14.702690972222221,0)" xlink:href="#an"/><use transform="matrix(0.010850694444444444,0,0,0.010850694444444444,20.084635416666664,0)" xlink:href="#aq"/><use transform="matrix(0.010850694444444444,0,0,0.010850694444444444,33.40928819444444,0)" xlink:href="#am"/><use transform="matrix(0.010850694444444444,0,0,0.010850694444444444,47.037760416666664,0)" xlink:href="#aq"/><use transform="matrix(0.010850694444444444,0,0,0.010850694444444444,60.36241319444444,0)" xlink:href="#au"/><use transform="matrix(0.010850694444444444,0,0,0.010850694444444444,73.50260416666666,0)" xlink:href="#ag"/><use transform="matrix(0.010850694444444444,0,0,0.010850694444444444,80.77256944444443,0)" xlink:href="#as"/><use transform="matrix(0.010850694444444444,0,0,0.010850694444444444,88.87803819444443,0)" xlink:href="#at"/></g><path d="M49 0l509-1490h400L1480 0h-339l-115-346H497L386 0H49zm524-585h374c-75-213-124-402-192-666-66 268-110 453-182 666" id="av"/><path d="M537 19C279 19 81-185 81-557c0-382 206-575 454-575 190 0 278 113 318 202h10v-560h300V0H868v-179h-15C812-89 719 19 537 19zm92-241c153 0 240-134 240-336 0-203-86-334-240-334-158 0-240 138-240 334 0 197 84 336 240 336" id="aw"/><path d="M128 0v-1118h278l12 217c60-163 185-234 319-234 143 0 236 81 288 251 63-172 205-251 359-251 205 0 357 138 357 381V0h-301v-697c0-126-76-187-177-187-114 0-184 79-184 196V0H789v-705c0-109-72-179-174-179-106 0-187 74-187 208V0H128" id="ax"/><path d="M128 0v-1118h300V0H128zm150-1264c-91 0-165-68-165-154 0-85 74-154 165-154 90 0 165 69 165 154 0 86-75 154-165 154" id="ay"/><path d="M428-647V0H128v-1118h283l4 231c63-156 176-245 348-245 232 0 384 159 384 421V0H847v-659c0-139-76-222-202-222-128 0-217 86-217 234" id="az"/><g id="m"><use transform="matrix(0.010850694444444444,0,0,0.010850694444444444,0,0)" xlink:href="#av"/><use transform="matrix(0.010850694444444444,0,0,0.010850694444444444,16.080729166666664,0)" xlink:href="#aw"/><use transform="matrix(0.010850694444444444,0,0,0.010850694444444444,30.088975694444443,0)" xlink:href="#ax"/><use transform="matrix(0.010850694444444444,0,0,0.010850694444444444,50.36892361111111,0)" xlink:href="#ay"/><use transform="matrix(0.010850694444444444,0,0,0.010850694444444444,56.39105902777778,0)" xlink:href="#az"/></g><path d="M180 0v-1490h510c348 0 508 194 508 460 0 198-88 351-276 417L1256 0h-220L726-579c-117 2-238 0-356 1V0H180zm190-747h312c235 0 327-108 327-283 0-177-92-293-329-293H370v576" id="aA"/><path d="M613 24c-304 0-509-231-509-576 0-350 205-580 509-580 216 0 392 114 453 309l-173 49c-33-115-133-197-280-197-223 0-326 196-326 419 0 220 103 415 326 415 150 0 252-85 285-206l172 49C1010-95 832 24 613 24" id="aB"/><path d="M784 20c-382 0-662-292-662-764 0-473 280-766 662-766s660 293 660 766c0 472-278 764-660 764zm0-176c266 0 475-207 475-588 0-383-209-590-475-590-268 0-477 208-477 590 0 380 209 588 477 588" id="aC"/><path d="M678-1118v154H420V0H240v-964H20v-154h220v-149c0-194 155-293 318-293 85 0 141 18 168 30l-50 154c-19-6-47-17-97-17-111 0-159 58-159 166v109h258" id="aD"/><path d="M98-1322v-168h1126v168H757V0H567v-1322H98" id="aE"/><path d="M338-670V0H158v-1490h180v566c73-149 190-208 336-208 226 0 379 139 379 422V0H872v-695c0-172-96-275-252-275-161 0-282 109-282 300" id="aF"/><path d="M645 0H180v-1490h484c435 0 692 280 692 742 0 466-257 748-711 748zM370-168h263c363 0 539-218 539-580 0-358-176-574-521-574H370v1154" id="aG"/><path d="M140 405l46-156c120 36 205 19 263-150l32-93L54-1118h197c107 313 237 620 324 950 87-331 219-637 326-950h196L606 167c-68 178-176 259-334 259-64 0-113-12-132-21" id="aH"/><g id="n"><use transform="matrix(0.010850694444444444,0,0,0.010850694444444444,0,0)" xlink:href="#ar"/><use transform="matrix(0.010850694444444444,0,0,0.010850694444444444,14.702690972222221,0)" xlink:href="#ak"/><use transform="matrix(0.010850694444444444,0,0,0.010850694444444444,26.432291666666664,0)" xlink:href="#aj"/><use transform="matrix(0.010850694444444444,0,0,0.010850694444444444,39.38802083333333,0)" xlink:href="#ag"/><use transform="matrix(0.010850694444444444,0,0,0.010850694444444444,46.65798611111111,0)" xlink:href="#aA"/><use transform="matrix(0.010850694444444444,0,0,0.010850694444444444,60.63368055555555,0)" xlink:href="#aj"/><use transform="matrix(0.010850694444444444,0,0,0.010850694444444444,73.58940972222221,0)" xlink:href="#aB"/><use transform="matrix(0.010850694444444444,0,0,0.010850694444444444,86.28472222222221,0)" xlink:href="#ac"/><use transform="matrix(0.010850694444444444,0,0,0.010850694444444444,91.66666666666666,0)" xlink:href="#ao"/><use transform="matrix(0.010850694444444444,0,0,0.010850694444444444,105.27343749999997,0)" xlink:href="#aj"/><use transform="matrix(0.010850694444444444,0,0,0.010850694444444444,118.22916666666666,0)" xlink:href="#aC"/><use transform="matrix(0.010850694444444444,0,0,0.010850694444444444,135.22135416666666,0)" xlink:href="#aD"/><use transform="matrix(0.010850694444444444,0,0,0.010850694444444444,143.44618055555554,0)" xlink:href="#aE"/><use transform="matrix(0.010850694444444444,0,0,0.010850694444444444,157.7907986111111,0)" xlink:href="#aF"/><use transform="matrix(0.010850694444444444,0,0,0.010850694444444444,170.93098958333331,0)" xlink:href="#aj"/><use transform="matrix(0.010850694444444444,0,0,0.010850694444444444,183.88671874999994,0)" xlink:href="#aG"/><use transform="matrix(0.010850694444444444,0,0,0.010850694444444444,199.92404513888883,0)" xlink:href="#ah"/><use transform="matrix(0.010850694444444444,0,0,0.010850694444444444,212.07682291666663,0)" xlink:href="#aH"/><use transform="matrix(0.010850694444444444,0,0,0.010850694444444444,224.56597222222217,0)" xlink:href="#as"/><use transform="matrix(0.010850694444444444,0,0,0.010850694444444444,232.67144097222217,0)" xlink:href="#at"/></g><path d="M481 0L54-1118h197c107 314 236 620 325 951 87-331 217-637 324-951h197L670 0H481" id="aI"/><g id="o"><use transform="matrix(0.010850694444444444,0,0,0.010850694444444444,0,0)" xlink:href="#ar"/><use transform="matrix(0.010850694444444444,0,0,0.010850694444444444,14.702690972222221,0)" xlink:href="#al"/><use transform="matrix(0.010850694444444444,0,0,0.010850694444444444,22.69965277777778,0)" xlink:href="#aj"/><use transform="matrix(0.010850694444444444,0,0,0.010850694444444444,35.65538194444444,0)" xlink:href="#ai"/><use transform="matrix(0.010850694444444444,0,0,0.010850694444444444,55.12152777777778,0)" xlink:href="#aq"/><use transform="matrix(0.010850694444444444,0,0,0.010850694444444444,68.01215277777777,0)" xlink:href="#aI"/><use transform="matrix(0.010850694444444444,0,0,0.010850694444444444,80.06727430555556,0)" xlink:href="#aj"/><use transform="matrix(0.010850694444444444,0,0,0.010850694444444444,93.02300347222221,0)" xlink:href="#aA"/><use transform="matrix(0.010850694444444444,0,0,0.010850694444444444,106.99869791666666,0)" xlink:href="#aj"/><use transform="matrix(0.010850694444444444,0,0,0.010850694444444444,119.95442708333334,0)" xlink:href="#aB"/><use transform="matrix(0.010850694444444444,0,0,0.010850694444444444,132.64973958333334,0)" xlink:href="#ac"/><use transform="matrix(0.010850694444444444,0,0,0.010850694444444444,138.0316840277778,0)" xlink:href="#ao"/><use transform="matrix(0.010850694444444444,0,0,0.010850694444444444,151.63845486111114,0)" xlink:href="#aj"/><use transform="matrix(0.010850694444444444,0,0,0.010850694444444444,164.5941840277778,0)" xlink:href="#as"/><use transform="matrix(0.010850694444444444,0,0,0.010850694444444444,172.6996527777778,0)" xlink:href="#at"/></g><path d="M135 0v-1490h581c339 0 533 192 533 485 0 204-94 351-264 424L1302 0H964L680-532H440V0H135zm305-779h220c186 0 274-77 274-226 0-150-88-233-275-233H440v459" id="aJ"/><path d="M628 22C291 22 81-210 81-554c0-346 210-578 547-578 265 0 455 142 497 372l-279 52c-25-116-99-188-215-188-160 0-244 139-244 341 0 200 84 341 244 341 116 0 193-74 217-195l279 51C1085-123 896 22 628 22" id="aK"/><path d="M128 418v-1536h295v188h14c41-89 129-202 319-202 248 0 453 193 453 575 0 372-197 576-455 576-183 0-275-108-317-198h-9v597H128zm534-640c156 0 240-139 240-336 0-196-83-334-240-334-154 0-241 131-241 334 0 202 88 336 241 336" id="aL"/><g id="p"><use transform="matrix(0.010850694444444444,0,0,0.010850694444444444,0,0)" xlink:href="#aJ"/><use transform="matrix(0.010850694444444444,0,0,0.010850694444444444,14.322916666666666,0)" xlink:href="#Z"/><use transform="matrix(0.010850694444444444,0,0,0.010850694444444444,27.56076388888889,0)" xlink:href="#aK"/><use transform="matrix(0.010850694444444444,0,0,0.010850694444444444,40.63585069444444,0)" xlink:href="#ay"/><use transform="matrix(0.010850694444444444,0,0,0.010850694444444444,46.65798611111111,0)" xlink:href="#aL"/><use transform="matrix(0.010850694444444444,0,0,0.010850694444444444,60.666232638888886,0)" xlink:href="#Z"/></g><g id="q"><use transform="matrix(0.010850694444444444,0,0,0.010850694444444444,0,0)" xlink:href="#ab"/><use transform="matrix(0.010850694444444444,0,0,0.010850694444444444,10.221354166666666,0)" xlink:href="#ag"/><use transform="matrix(0.010850694444444444,0,0,0.010850694444444444,17.491319444444443,0)" xlink:href="#ac"/><use transform="matrix(0.010850694444444444,0,0,0.010850694444444444,22.87326388888889,0)" xlink:href="#ag"/><use transform="matrix(0.010850694444444444,0,0,0.010850694444444444,30.143229166666664,0)" xlink:href="#an"/><use transform="matrix(0.010850694444444444,0,0,0.010850694444444444,35.52517361111111,0)" xlink:href="#aj"/><use transform="matrix(0.010850694444444444,0,0,0.010850694444444444,48.48090277777778,0)" xlink:href="#ae"/></g><g id="r"><use transform="matrix(0.010850694444444444,0,0,0.010850694444444444,0,0)" xlink:href="#ab"/><use transform="matrix(0.010850694444444444,0,0,0.010850694444444444,10.221354166666666,0)" xlink:href="#ad"/><use transform="matrix(0.010850694444444444,0,0,0.010850694444444444,23.828125,0)" xlink:href="#aj"/><use transform="matrix(0.010850694444444444,0,0,0.010850694444444444,36.783854166666664,0)" xlink:href="#ak"/><use transform="matrix(0.010850694444444444,0,0,0.010850694444444444,48.51345486111111,0)" xlink:href="#aB"/><use transform="matrix(0.010850694444444444,0,0,0.010850694444444444,61.20876736111111,0)" xlink:href="#al"/><use transform="matrix(0.010850694444444444,0,0,0.010850694444444444,69.921875,0)" xlink:href="#ac"/><use transform="matrix(0.010850694444444444,0,0,0.010850694444444444,75.30381944444444,0)" xlink:href="#ao"/><use transform="matrix(0.010850694444444444,0,0,0.010850694444444444,88.91059027777777,0)" xlink:href="#ag"/><use transform="matrix(0.010850694444444444,0,0,0.010850694444444444,96.18055555555556,0)" xlink:href="#ac"/><use transform="matrix(0.010850694444444444,0,0,0.010850694444444444,101.56249999999997,0)" xlink:href="#aq"/><use transform="matrix(0.010850694444444444,0,0,0.010850694444444444,114.88715277777776,0)" xlink:href="#af"/><use transform="matrix(0.010850694444444444,0,0,0.010850694444444444,128.01649305555554,0)" xlink:href="#ae"/></g><path d="M65 0l393-574-370-544h210c88 136 192 297 267 435 67-142 176-302 264-435h206L661-564 1053 0H844c-94-144-206-310-287-458C484-308 366-142 273 0H65" id="aM"/><g id="s"><use transform="matrix(0.010850694444444444,0,0,0.010850694444444444,0,0)" xlink:href="#ag"/><use transform="matrix(0.010850694444444444,0,0,0.010850694444444444,7.052951388888888,0)" xlink:href="#aj"/><use transform="matrix(0.010850694444444444,0,0,0.010850694444444444,19.50954861111111,0)" xlink:href="#aM"/><use transform="matrix(0.010850694444444444,0,0,0.010850694444444444,32.07465277777778,0)" xlink:href="#ag"/></g><g id="t"><use transform="matrix(0.010850694444444444,0,0,0.010850694444444444,0,0)" xlink:href="#ab"/><use transform="matrix(0.010850694444444444,0,0,0.010850694444444444,10.221354166666666,0)" xlink:href="#ak"/><use transform="matrix(0.010850694444444444,0,0,0.010850694444444444,21.95095486111111,0)" xlink:href="#ag"/><use transform="matrix(0.010850694444444444,0,0,0.010850694444444444,29.00390625,0)" xlink:href="#aj"/><use transform="matrix(0.010850694444444444,0,0,0.010850694444444444,41.959635416666664,0)" xlink:href="#ao"/><use transform="matrix(0.010850694444444444,0,0,0.010850694444444444,55.56640625,0)" xlink:href="#ak"/><use transform="matrix(0.010850694444444444,0,0,0.010850694444444444,67.29600694444444,0)" xlink:href="#ae"/></g><g id="u"><use transform="matrix(0.010850694444444444,0,0,0.010850694444444444,0,0)" xlink:href="#ab"/><use transform="matrix(0.010850694444444444,0,0,0.010850694444444444,10.221354166666666,0)" xlink:href="#ac"/><use transform="matrix(0.010850694444444444,0,0,0.010850694444444444,15.60329861111111,0)" xlink:href="#ai"/><use transform="matrix(0.010850694444444444,0,0,0.010850694444444444,35.06944444444444,0)" xlink:href="#ah"/><use transform="matrix(0.010850694444444444,0,0,0.010850694444444444,47.54774305555556,0)" xlink:href="#am"/><use transform="matrix(0.010850694444444444,0,0,0.010850694444444444,61.17621527777778,0)" xlink:href="#aj"/><use transform="matrix(0.010850694444444444,0,0,0.010850694444444444,74.13194444444444,0)" xlink:href="#ae"/></g><path d="M52 0l541-1490h220L1361 0h-200l-149-416H398L254 0H52zm404-582h497c-103-290-145-390-251-756-108 377-145 460-246 756" id="aN"/><g id="v"><use transform="matrix(0.010850694444444444,0,0,0.010850694444444444,0,0)" xlink:href="#ab"/><use transform="matrix(0.010850694444444444,0,0,0.010850694444444444,10.221354166666666,0)" xlink:href="#aB"/><use transform="matrix(0.010850694444444444,0,0,0.010850694444444444,22.916666666666664,0)" xlink:href="#al"/><use transform="matrix(0.010850694444444444,0,0,0.010850694444444444,30.91362847222222,0)" xlink:href="#aj"/><use transform="matrix(0.010850694444444444,0,0,0.010850694444444444,44.08637152777778,0)" xlink:href="#ah"/><use transform="matrix(0.010850694444444444,0,0,0.010850694444444444,56.564670138888886,0)" xlink:href="#ag"/><use transform="matrix(0.010850694444444444,0,0,0.010850694444444444,63.61762152777778,0)" xlink:href="#aj"/><use transform="matrix(0.010850694444444444,0,0,0.010850694444444444,76.57335069444444,0)" xlink:href="#ad"/><use transform="matrix(0.010850694444444444,0,0,0.010850694444444444,90.18012152777777,0)" xlink:href="#aN"/><use transform="matrix(0.010850694444444444,0,0,0.010850694444444444,105.078125,0)" xlink:href="#ag"/><use transform="matrix(0.010850694444444444,0,0,0.010850694444444444,112.34809027777777,0)" xlink:href="#ae"/></g><g id="w"><use transform="matrix(0.010850694444444444,0,0,0.010850694444444444,0,0)" xlink:href="#ad"/><use transform="matrix(0.010850694444444444,0,0,0.010850694444444444,13.606770833333332,0)" xlink:href="#ah"/><use transform="matrix(0.010850694444444444,0,0,0.010850694444444444,26.085069444444443,0)" xlink:href="#ag"/><use transform="matrix(0.010850694444444444,0,0,0.010850694444444444,33.13802083333333,0)" xlink:href="#aj"/><use transform="matrix(0.010850694444444444,0,0,0.010850694444444444,46.093749999999986,0)" xlink:href="#ag"/><use transform="matrix(0.010850694444444444,0,0,0.010850694444444444,53.36371527777778,0)" xlink:href="#ac"/><use transform="matrix(0.010850694444444444,0,0,0.010850694444444444,58.74565972222221,0)" xlink:href="#ai"/><use transform="matrix(0.010850694444444444,0,0,0.010850694444444444,78.21180555555554,0)" xlink:href="#aj"/></g><g id="x"><use transform="matrix(0.010850694444444444,0,0,0.010850694444444444,0,0)" xlink:href="#ab"/><use transform="matrix(0.010850694444444444,0,0,0.010850694444444444,10.221354166666666,0)" xlink:href="#ac"/><use transform="matrix(0.010850694444444444,0,0,0.010850694444444444,15.60329861111111,0)" xlink:href="#ak"/><use transform="matrix(0.010850694444444444,0,0,0.010850694444444444,27.33289930555556,0)" xlink:href="#aA"/><use transform="matrix(0.010850694444444444,0,0,0.010850694444444444,41.30859375,0)" xlink:href="#aj"/><use transform="matrix(0.010850694444444444,0,0,0.010850694444444444,54.264322916666664,0)" xlink:href="#aB"/><use transform="matrix(0.010850694444444444,0,0,0.010850694444444444,66.95963541666666,0)" xlink:href="#ac"/><use transform="matrix(0.010850694444444444,0,0,0.010850694444444444,72.3415798611111,0)" xlink:href="#ao"/><use transform="matrix(0.010850694444444444,0,0,0.010850694444444444,85.94835069444443,0)" xlink:href="#aj"/><use transform="matrix(0.010850694444444444,0,0,0.010850694444444444,98.90407986111111,0)" xlink:href="#aC"/><use transform="matrix(0.010850694444444444,0,0,0.010850694444444444,115.8962673611111,0)" xlink:href="#aD"/><use transform="matrix(0.010850694444444444,0,0,0.010850694444444444,124.12109375,0)" xlink:href="#aG"/><use transform="matrix(0.010850694444444444,0,0,0.010850694444444444,140.15842013888889,0)" xlink:href="#ah"/><use transform="matrix(0.010850694444444444,0,0,0.010850694444444444,152.31119791666666,0)" xlink:href="#aH"/><use transform="matrix(0.010850694444444444,0,0,0.010850694444444444,164.8003472222222,0)" xlink:href="#ae"/></g><path d="M677 24c-213 0-288-135-325-197h-20V0H158v-1490h180v551h14c37-59 106-193 324-193 279 0 474 222 474 576 0 356-194 580-473 580zm-27-161c209 0 317-186 317-421 0-232-105-413-317-413-206 0-314 166-314 413 0 249 111 421 314 421" id="aO"/><g id="y"><use transform="matrix(0.010850694444444444,0,0,0.010850694444444444,0,0)" xlink:href="#aO"/><use transform="matrix(0.010850694444444444,0,0,0.010850694444444444,13.606770833333332,0)" xlink:href="#aq"/><use transform="matrix(0.010850694444444444,0,0,0.010850694444444444,26.931423611111104,0)" xlink:href="#aq"/><use transform="matrix(0.010850694444444444,0,0,0.010850694444444444,40.256076388888886,0)" xlink:href="#an"/><use transform="matrix(0.010850694444444444,0,0,0.010850694444444444,45.63802083333333,0)" xlink:href="#aj"/><use transform="matrix(0.010850694444444444,0,0,0.010850694444444444,58.81076388888888,0)" xlink:href="#ah"/><use transform="matrix(0.010850694444444444,0,0,0.010850694444444444,71.28906249999999,0)" xlink:href="#af"/></g><g id="z"><use transform="matrix(0.010850694444444444,0,0,0.010850694444444444,0,0)" xlink:href="#ar"/><use transform="matrix(0.010850694444444444,0,0,0.010850694444444444,14.702690972222221,0)" xlink:href="#aB"/><use transform="matrix(0.010850694444444444,0,0,0.010850694444444444,27.39800347222222,0)" xlink:href="#al"/><use transform="matrix(0.010850694444444444,0,0,0.010850694444444444,35.39496527777778,0)" xlink:href="#aj"/><use transform="matrix(0.010850694444444444,0,0,0.010850694444444444,48.56770833333333,0)" xlink:href="#ah"/><use transform="matrix(0.010850694444444444,0,0,0.010850694444444444,61.04600694444444,0)" xlink:href="#ag"/><use transform="matrix(0.010850694444444444,0,0,0.010850694444444444,68.09895833333333,0)" xlink:href="#aj"/><use transform="matrix(0.010850694444444444,0,0,0.010850694444444444,81.0546875,0)" xlink:href="#as"/><use transform="matrix(0.010850694444444444,0,0,0.010850694444444444,89.16015625,0)" xlink:href="#at"/></g><g id="A"><use transform="matrix(0.010850694444444444,0,0,0.010850694444444444,0,0)" xlink:href="#ar"/><use transform="matrix(0.010850694444444444,0,0,0.010850694444444444,14.702690972222221,0)" xlink:href="#au"/><use transform="matrix(0.010850694444444444,0,0,0.010850694444444444,27.842881944444443,0)" xlink:href="#ao"/><use transform="matrix(0.010850694444444444,0,0,0.010850694444444444,41.44965277777777,0)" xlink:href="#ad"/><use transform="matrix(0.010850694444444444,0,0,0.010850694444444444,55.0564236111111,0)" xlink:href="#ah"/><use transform="matrix(0.010850694444444444,0,0,0.010850694444444444,67.53472222222221,0)" xlink:href="#ag"/><use transform="matrix(0.010850694444444444,0,0,0.010850694444444444,74.5876736111111,0)" xlink:href="#aj"/><use transform="matrix(0.010850694444444444,0,0,0.010850694444444444,87.54340277777777,0)" xlink:href="#as"/><use transform="matrix(0.010850694444444444,0,0,0.010850694444444444,95.64887152777777,0)" xlink:href="#at"/></g><g id="B"><use transform="matrix(0.010850694444444444,0,0,0.010850694444444444,0,0)" xlink:href="#ar"/><use transform="matrix(0.010850694444444444,0,0,0.010850694444444444,14.702690972222221,0)" xlink:href="#ad"/><use transform="matrix(0.010850694444444444,0,0,0.010850694444444444,28.309461805555554,0)" xlink:href="#aj"/><use transform="matrix(0.010850694444444444,0,0,0.010850694444444444,41.26519097222222,0)" xlink:href="#an"/><use transform="matrix(0.010850694444444444,0,0,0.010850694444444444,46.647135416666664,0)" xlink:href="#aj"/><use transform="matrix(0.010850694444444444,0,0,0.010850694444444444,59.60286458333333,0)" xlink:href="#ag"/><use transform="matrix(0.010850694444444444,0,0,0.010850694444444444,66.65581597222221,0)" xlink:href="#aj"/><use transform="matrix(0.010850694444444444,0,0,0.010850694444444444,79.61154513888889,0)" xlink:href="#as"/><use transform="matrix(0.010850694444444444,0,0,0.010850694444444444,87.71701388888889,0)" xlink:href="#at"/></g><path d="M370-1490V0H180v-1490h190" id="aP"/><g id="C"><use transform="matrix(0.010850694444444444,0,0,0.010850694444444444,0,0)" xlink:href="#ar"/><use transform="matrix(0.010850694444444444,0,0,0.010850694444444444,14.702690972222221,0)" xlink:href="#ah"/><use transform="matrix(0.010850694444444444,0,0,0.010850694444444444,27.180989583333332,0)" xlink:href="#ad"/><use transform="matrix(0.010850694444444444,0,0,0.010850694444444444,40.787760416666664,0)" xlink:href="#ad"/><use transform="matrix(0.010850694444444444,0,0,0.010850694444444444,54.39453125,0)" xlink:href="#aP"/><use transform="matrix(0.010850694444444444,0,0,0.010850694444444444,60.36241319444444,0)" xlink:href="#af"/><use transform="matrix(0.010850694444444444,0,0,0.010850694444444444,73.49175347222221,0)" xlink:href="#am"/><use transform="matrix(0.010850694444444444,0,0,0.010850694444444444,87.12022569444443,0)" xlink:href="#al"/><use transform="matrix(0.010850694444444444,0,0,0.010850694444444444,95.11718749999997,0)" xlink:href="#aj"/><use transform="matrix(0.010850694444444444,0,0,0.010850694444444444,108.07291666666666,0)" xlink:href="#ad"/><use transform="matrix(0.010850694444444444,0,0,0.010850694444444444,121.67968749999997,0)" xlink:href="#ac"/><use transform="matrix(0.010850694444444444,0,0,0.010850694444444444,127.06163194444441,0)" xlink:href="#aj"/><use transform="matrix(0.010850694444444444,0,0,0.010850694444444444,140.0173611111111,0)" xlink:href="#af"/><use transform="matrix(0.010850694444444444,0,0,0.010850694444444444,153.14670138888886,0)" xlink:href="#ag"/><use transform="matrix(0.010850694444444444,0,0,0.010850694444444444,160.41666666666663,0)" xlink:href="#as"/><use transform="matrix(0.010850694444444444,0,0,0.010850694444444444,168.52213541666663,0)" xlink:href="#at"/></g><g id="D"><use transform="matrix(0.010850694444444444,0,0,0.010850694444444444,0,0)" xlink:href="#ar"/><use transform="matrix(0.010850694444444444,0,0,0.010850694444444444,14.702690972222221,0)" xlink:href="#al"/><use transform="matrix(0.010850694444444444,0,0,0.010850694444444444,22.69965277777778,0)" xlink:href="#aj"/><use transform="matrix(0.010850694444444444,0,0,0.010850694444444444,35.65538194444444,0)" xlink:href="#ai"/><use transform="matrix(0.010850694444444444,0,0,0.010850694444444444,55.12152777777778,0)" xlink:href="#aq"/><use transform="matrix(0.010850694444444444,0,0,0.010850694444444444,68.01215277777777,0)" xlink:href="#aI"/><use transform="matrix(0.010850694444444444,0,0,0.010850694444444444,80.06727430555556,0)" xlink:href="#aj"/><use transform="matrix(0.010850694444444444,0,0,0.010850694444444444,93.02300347222221,0)" xlink:href="#aP"/><use transform="matrix(0.010850694444444444,0,0,0.010850694444444444,98.99088541666666,0)" xlink:href="#af"/><use transform="matrix(0.010850694444444444,0,0,0.010850694444444444,112.12022569444444,0)" xlink:href="#am"/><use transform="matrix(0.010850694444444444,0,0,0.010850694444444444,125.74869791666666,0)" xlink:href="#al"/><use transform="matrix(0.010850694444444444,0,0,0.010850694444444444,133.7456597222222,0)" xlink:href="#aj"/><use transform="matrix(0.010850694444444444,0,0,0.010850694444444444,146.70138888888886,0)" xlink:href="#ad"/><use transform="matrix(0.010850694444444444,0,0,0.010850694444444444,160.3081597222222,0)" xlink:href="#ac"/><use transform="matrix(0.010850694444444444,0,0,0.010850694444444444,165.69010416666666,0)" xlink:href="#aj"/><use transform="matrix(0.010850694444444444,0,0,0.010850694444444444,178.64583333333331,0)" xlink:href="#af"/><use transform="matrix(0.010850694444444444,0,0,0.010850694444444444,191.77517361111111,0)" xlink:href="#ag"/><use transform="matrix(0.010850694444444444,0,0,0.010850694444444444,199.04513888888883,0)" xlink:href="#as"/><use transform="matrix(0.010850694444444444,0,0,0.010850694444444444,207.15060763888883,0)" xlink:href="#at"/></g><path d="M180 0v-1490h510c348 0 508 209 508 474 0 266-160 477-507 477H370V0H180zm190-706h312c236 0 327-133 327-310 0-176-91-307-329-307H370v617" id="aQ"/><path d="M180 0v-1490h901v168H370v510h643v168H370V0H180" id="aR"/><g id="E"><use transform="matrix(0.010850694444444444,0,0,0.010850694444444444,0,0)" xlink:href="#ar"/><use transform="matrix(0.010850694444444444,0,0,0.010850694444444444,14.702690972222221,0)" xlink:href="#aj"/><use transform="matrix(0.010850694444444444,0,0,0.010850694444444444,27.159288194444443,0)" xlink:href="#aM"/><use transform="matrix(0.010850694444444444,0,0,0.010850694444444444,39.29036458333333,0)" xlink:href="#ao"/><use transform="matrix(0.010850694444444444,0,0,0.010850694444444444,52.89713541666666,0)" xlink:href="#aq"/><use transform="matrix(0.010850694444444444,0,0,0.010850694444444444,66.22178819444443,0)" xlink:href="#al"/><use transform="matrix(0.010850694444444444,0,0,0.010850694444444444,74.93489583333333,0)" xlink:href="#ag"/><use transform="matrix(0.010850694444444444,0,0,0.010850694444444444,81.45616319444443,0)" xlink:href="#aE"/><use transform="matrix(0.010850694444444444,0,0,0.010850694444444444,94.06467013888887,0)" xlink:href="#aq"/><use transform="matrix(0.010850694444444444,0,0,0.010850694444444444,107.38932291666664,0)" xlink:href="#aQ"/><use transform="matrix(0.010850694444444444,0,0,0.010850694444444444,121.58203124999997,0)" xlink:href="#aG"/><use transform="matrix(0.010850694444444444,0,0,0.010850694444444444,137.61935763888886,0)" xlink:href="#aR"/><use transform="matrix(0.010850694444444444,0,0,0.010850694444444444,150.7378472222222,0)" xlink:href="#as"/><use transform="matrix(0.010850694444444444,0,0,0.010850694444444444,158.8433159722222,0)" xlink:href="#at"/></g><path d="M440-1490V0H135v-1490h305" id="aS"/><path d="M625 442c-280 0-454-114-503-274l258-72c28 63 97 128 243 128 153 0 246-69 246-216v-206h-23C805-108 717-16 536-16 284-16 81-191 81-561c0-378 208-571 456-571 188 0 280 113 321 202h13v-188h295V-9c0 303-226 451-541 451zm5-686c153 0 240-119 240-319 0-198-86-329-240-329-158 0-241 137-241 329 0 195 85 319 241 319" id="aT"/><path d="M683-1118v229H474v562c0 71 29 104 102 104 23 0 73-7 95-13l43 225C647 9 580 16 520 16 296 16 174-96 174-301v-588H20v-229h154v-266h300v266h209" id="aU"/><g id="F"><use transform="matrix(0.010850694444444444,0,0,0.010850694444444444,0,0)" xlink:href="#aS"/><use transform="matrix(0.010850694444444444,0,0,0.010850694444444444,6.239149305555555,0)" xlink:href="#az"/><use transform="matrix(0.010850694444444444,0,0,0.010850694444444444,20.07378472222222,0)" xlink:href="#aT"/><use transform="matrix(0.010850694444444444,0,0,0.010850694444444444,34.11458333333333,0)" xlink:href="#aa"/><use transform="matrix(0.010850694444444444,0,0,0.010850694444444444,42.62152777777777,0)" xlink:href="#Z"/><use transform="matrix(0.010850694444444444,0,0,0.010850694444444444,55.859374999999986,0)" xlink:href="#aw"/><use transform="matrix(0.010850694444444444,0,0,0.010850694444444444,69.86762152777777,0)" xlink:href="#ay"/><use transform="matrix(0.010850694444444444,0,0,0.010850694444444444,75.88975694444444,0)" xlink:href="#Z"/><use transform="matrix(0.010850694444444444,0,0,0.010850694444444444,89.12760416666666,0)" xlink:href="#az"/><use transform="matrix(0.010850694444444444,0,0,0.010850694444444444,102.96223958333333,0)" xlink:href="#aU"/></g><path d="M1096 418H916v-591h-14C865-111 790 24 577 24c-279 0-473-224-473-580 0-354 195-576 474-576 218 0 287 134 324 193h20v-179h174V418zM604-137c203 0 314-172 314-421 0-247-108-413-314-413-212 0-317 181-317 413 0 235 108 421 317 421" id="aV"/><g id="G"><use transform="matrix(0.010850694444444444,0,0,0.010850694444444444,0,0)" xlink:href="#ab"/><use transform="matrix(0.010850694444444444,0,0,0.010850694444444444,10.221354166666666,0)" xlink:href="#aV"/><use transform="matrix(0.010850694444444444,0,0,0.010850694444444444,23.828125,0)" xlink:href="#au"/><use transform="matrix(0.010850694444444444,0,0,0.010850694444444444,36.96831597222222,0)" xlink:href="#ah"/><use transform="matrix(0.010850694444444444,0,0,0.010850694444444444,49.44661458333333,0)" xlink:href="#af"/><use transform="matrix(0.010850694444444444,0,0,0.010850694444444444,62.57595486111111,0)" xlink:href="#ag"/><use transform="matrix(0.010850694444444444,0,0,0.010850694444444444,69.84592013888889,0)" xlink:href="#ac"/><use transform="matrix(0.010850694444444444,0,0,0.010850694444444444,75.22786458333333,0)" xlink:href="#ag"/><use transform="matrix(0.010850694444444444,0,0,0.010850694444444444,82.93185763888887,0)" xlink:href="#aH"/><use transform="matrix(0.010850694444444444,0,0,0.010850694444444444,95.42100694444441,0)" xlink:href="#ae"/></g><path d="M784 20c-382 0-662-292-662-764 0-473 280-766 662-766s660 293 660 766c0 282-99 499-260 629l192 255h-198L1049-33C969 2 880 20 784 20zm-62-486h198l156 205c112-98 183-261 183-483 0-383-209-590-475-590-268 0-477 208-477 590 0 380 209 588 477 588 54 0 106-9 154-25" id="aW"/><g id="H"><use transform="matrix(0.010850694444444444,0,0,0.010850694444444444,0,0)" xlink:href="#ar"/><use transform="matrix(0.010850694444444444,0,0,0.010850694444444444,14.702690972222221,0)" xlink:href="#au"/><use transform="matrix(0.010850694444444444,0,0,0.010850694444444444,27.842881944444443,0)" xlink:href="#ao"/><use transform="matrix(0.010850694444444444,0,0,0.010850694444444444,41.44965277777777,0)" xlink:href="#ad"/><use transform="matrix(0.010850694444444444,0,0,0.010850694444444444,55.0564236111111,0)" xlink:href="#ah"/><use transform="matrix(0.010850694444444444,0,0,0.010850694444444444,67.53472222222221,0)" xlink:href="#ag"/><use transform="matrix(0.010850694444444444,0,0,0.010850694444444444,74.5876736111111,0)" xlink:href="#aj"/><use transform="matrix(0.010850694444444444,0,0,0.010850694444444444,87.54340277777777,0)" xlink:href="#aW"/><use transform="matrix(0.010850694444444444,0,0,0.010850694444444444,104.53559027777777,0)" xlink:href="#au"/><use transform="matrix(0.010850694444444444,0,0,0.010850694444444444,117.67578125,0)" xlink:href="#ah"/><use transform="matrix(0.010850694444444444,0,0,0.010850694444444444,130.15407986111111,0)" xlink:href="#af"/><use transform="matrix(0.010850694444444444,0,0,0.010850694444444444,143.28342013888889,0)" xlink:href="#ag"/><use transform="matrix(0.010850694444444444,0,0,0.010850694444444444,150.55338541666666,0)" xlink:href="#ac"/><use transform="matrix(0.010850694444444444,0,0,0.010850694444444444,155.93532986111111,0)" xlink:href="#ag"/><use transform="matrix(0.010850694444444444,0,0,0.010850694444444444,163.63932291666666,0)" xlink:href="#aH"/><use transform="matrix(0.010850694444444444,0,0,0.010850694444444444,176.1284722222222,0)" xlink:href="#as"/><use transform="matrix(0.010850694444444444,0,0,0.010850694444444444,184.23394097222223,0)" xlink:href="#at"/></g><path d="M786 20C389 20 94-260 94-744c0-487 299-766 692-766 339 0 597 194 641 529h-309c-28-162-156-258-326-258-233 0-388 179-388 495 0 323 157 493 387 493 170 0 298-97 328-259h309c-34 277-266 530-642 530" id="aX"/><path d="M628 22C291 22 81-210 81-554c0-346 210-578 547-578 336 0 547 232 547 578 0 344-211 576-547 576zm0-236c160 0 242-146 242-341 0-197-82-341-242-341S387-753 387-555c0 195 81 341 241 341" id="aY"/><g id="I"><use transform="matrix(0.010850694444444444,0,0,0.010850694444444444,0,0)" xlink:href="#aX"/><use transform="matrix(0.010850694444444444,0,0,0.010850694444444444,16.438802083333332,0)" xlink:href="#aY"/><use transform="matrix(0.010850694444444444,0,0,0.010850694444444444,30.067274305555554,0)" xlink:href="#ax"/><use transform="matrix(0.010850694444444444,0,0,0.010850694444444444,50.34722222222221,0)" xlink:href="#ax"/><use transform="matrix(0.010850694444444444,0,0,0.010850694444444444,70.62717013888889,0)" xlink:href="#Z"/><use transform="matrix(0.010850694444444444,0,0,0.010850694444444444,83.86501736111111,0)" xlink:href="#az"/><use transform="matrix(0.010850694444444444,0,0,0.010850694444444444,97.6996527777778,0)" xlink:href="#aU"/></g><g id="J"><use transform="matrix(0.010850694444444444,0,0,0.010850694444444444,0,0)" xlink:href="#ab"/><use transform="matrix(0.010850694444444444,0,0,0.010850694444444444,10.221354166666666,0)" xlink:href="#aB"/><use transform="matrix(0.010850694444444444,0,0,0.010850694444444444,22.916666666666664,0)" xlink:href="#aq"/><use transform="matrix(0.010850694444444444,0,0,0.010850694444444444,36.24131944444444,0)" xlink:href="#af"/><use transform="matrix(0.010850694444444444,0,0,0.010850694444444444,49.37065972222222,0)" xlink:href="#ag"/><use transform="matrix(0.010850694444444444,0,0,0.010850694444444444,56.42361111111112,0)" xlink:href="#aj"/><use transform="matrix(0.010850694444444444,0,0,0.010850694444444444,69.37934027777779,0)" xlink:href="#af"/><use transform="matrix(0.010850694444444444,0,0,0.010850694444444444,82.50868055555556,0)" xlink:href="#ag"/><use transform="matrix(0.010850694444444444,0,0,0.010850694444444444,89.77864583333333,0)" xlink:href="#ae"/></g><g id="K"><use transform="matrix(0.010850694444444444,0,0,0.010850694444444444,0,0)" xlink:href="#ad"/><use transform="matrix(0.010850694444444444,0,0,0.010850694444444444,13.606770833333332,0)" xlink:href="#ah"/><use transform="matrix(0.010850694444444444,0,0,0.010850694444444444,26.085069444444443,0)" xlink:href="#ag"/><use transform="matrix(0.010850694444444444,0,0,0.010850694444444444,33.13802083333333,0)" xlink:href="#aj"/><use transform="matrix(0.010850694444444444,0,0,0.010850694444444444,46.093749999999986,0)" xlink:href="#ag"/><use transform="matrix(0.010850694444444444,0,0,0.010850694444444444,53.36371527777778,0)" xlink:href="#ac"/><use transform="matrix(0.010850694444444444,0,0,0.010850694444444444,58.74565972222221,0)" xlink:href="#ai"/><use transform="matrix(0.010850694444444444,0,0,0.010850694444444444,78.21180555555554,0)" xlink:href="#aj"/></g><g id="L"><use transform="matrix(0.010850694444444444,0,0,0.010850694444444444,0,0)" xlink:href="#ar"/><use transform="matrix(0.010850694444444444,0,0,0.010850694444444444,14.702690972222221,0)" xlink:href="#ah"/><use transform="matrix(0.010850694444444444,0,0,0.010850694444444444,27.180989583333332,0)" xlink:href="#ad"/><use transform="matrix(0.010850694444444444,0,0,0.010850694444444444,40.787760416666664,0)" xlink:href="#ad"/><use transform="matrix(0.010850694444444444,0,0,0.010850694444444444,54.39453125,0)" xlink:href="#as"/><use transform="matrix(0.010850694444444444,0,0,0.010850694444444444,62.5,0)" xlink:href="#at"/></g><g id="M"><use transform="matrix(0.010850694444444444,0,0,0.010850694444444444,0,0)" xlink:href="#ar"/><use transform="matrix(0.010850694444444444,0,0,0.010850694444444444,14.702690972222221,0)" xlink:href="#aj"/><use transform="matrix(0.010850694444444444,0,0,0.010850694444444444,27.65842013888889,0)" xlink:href="#ad"/><use transform="matrix(0.010850694444444444,0,0,0.010850694444444444,41.265190972222214,0)" xlink:href="#ac"/><use transform="matrix(0.010850694444444444,0,0,0.010850694444444444,46.64713541666666,0)" xlink:href="#ag"/><use transform="matrix(0.010850694444444444,0,0,0.010850694444444444,53.917100694444436,0)" xlink:href="#as"/><use transform="matrix(0.010850694444444444,0,0,0.010850694444444444,62.022569444444436,0)" xlink:href="#at"/></g><g id="N"><use transform="matrix(0.010850694444444444,0,0,0.010850694444444444,0,0)" xlink:href="#ar"/><use transform="matrix(0.010850694444444444,0,0,0.010850694444444444,14.702690972222221,0)" xlink:href="#ad"/><use transform="matrix(0.010850694444444444,0,0,0.010850694444444444,28.309461805555554,0)" xlink:href="#aj"/><use transform="matrix(0.010850694444444444,0,0,0.010850694444444444,41.26519097222222,0)" xlink:href="#an"/><use transform="matrix(0.010850694444444444,0,0,0.010850694444444444,46.647135416666664,0)" xlink:href="#aj"/><use transform="matrix(0.010850694444444444,0,0,0.010850694444444444,59.60286458333333,0)" xlink:href="#ag"/><use transform="matrix(0.010850694444444444,0,0,0.010850694444444444,66.65581597222221,0)" xlink:href="#aj"/><use transform="matrix(0.010850694444444444,0,0,0.010850694444444444,79.61154513888889,0)" xlink:href="#as"/><use transform="matrix(0.010850694444444444,0,0,0.010850694444444444,87.71701388888889,0)" xlink:href="#at"/></g><path d="M440 22C227 22 68-92 68-313c0-250 202-322 422-343 195-21 271-24 271-105 0-95-63-149-175-149-116 0-187 57-211 129l-275-46c57-194 237-305 487-305 240 0 474 108 474 379V0H777v-155h-10C713-51 605 22 440 22zm85-211c140 0 238-93 238-211v-121c-37 26-156 42-222 51-111 16-185 59-185 149 0 87 70 132 169 132" id="aZ"/><path d="M120 396l69-226c123 42 245 23 254-107l8-60L31-1118h319c87 288 199 559 259 872 72-308 185-583 277-872h315L726 132c-68 181-186 294-410 294-79 0-153-13-196-30" id="ba"/><g id="O"><use transform="matrix(0.010850694444444444,0,0,0.010850694444444444,0,0)" xlink:href="#aX"/><use transform="matrix(0.010850694444444444,0,0,0.010850694444444444,16.438802083333332,0)" xlink:href="#aZ"/><use transform="matrix(0.010850694444444444,0,0,0.010850694444444444,29.340277777777775,0)" xlink:href="#aU"/><use transform="matrix(0.010850694444444444,0,0,0.010850694444444444,37.26128472222222,0)" xlink:href="#Z"/><use transform="matrix(0.010850694444444444,0,0,0.010850694444444444,50.49913194444444,0)" xlink:href="#aT"/><use transform="matrix(0.010850694444444444,0,0,0.010850694444444444,64.53993055555556,0)" xlink:href="#aY"/><use transform="matrix(0.010850694444444444,0,0,0.010850694444444444,78.16840277777777,0)" xlink:href="#aa"/><use transform="matrix(0.010850694444444444,0,0,0.010850694444444444,87.56510416666667,0)" xlink:href="#ba"/></g><g id="P"><use transform="matrix(0.010850694444444444,0,0,0.010850694444444444,0,0)" xlink:href="#ar"/><use transform="matrix(0.010850694444444444,0,0,0.010850694444444444,14.702690972222221,0)" xlink:href="#ah"/><use transform="matrix(0.010850694444444444,0,0,0.010850694444444444,27.180989583333332,0)" xlink:href="#ak"/><use transform="matrix(0.010850694444444444,0,0,0.010850694444444444,38.91059027777778,0)" xlink:href="#ak"/><use transform="matrix(0.010850694444444444,0,0,0.010850694444444444,50.64019097222222,0)" xlink:href="#ac"/><use transform="matrix(0.010850694444444444,0,0,0.010850694444444444,56.022135416666664,0)" xlink:href="#am"/><use transform="matrix(0.010850694444444444,0,0,0.010850694444444444,69.65060763888889,0)" xlink:href="#af"/><use transform="matrix(0.010850694444444444,0,0,0.010850694444444444,81.26085069444443,0)" xlink:href="#aE"/><use transform="matrix(0.010850694444444444,0,0,0.010850694444444444,93.86935763888887,0)" xlink:href="#aq"/><use transform="matrix(0.010850694444444444,0,0,0.010850694444444444,107.19401041666664,0)" xlink:href="#aA"/><use transform="matrix(0.010850694444444444,0,0,0.010850694444444444,121.16970486111109,0)" xlink:href="#aj"/><use transform="matrix(0.010850694444444444,0,0,0.010850694444444444,134.12543402777774,0)" xlink:href="#aB"/><use transform="matrix(0.010850694444444444,0,0,0.010850694444444444,146.82074652777774,0)" xlink:href="#ac"/><use transform="matrix(0.010850694444444444,0,0,0.010850694444444444,152.2026909722222,0)" xlink:href="#ao"/><use transform="matrix(0.010850694444444444,0,0,0.010850694444444444,165.80946180555554,0)" xlink:href="#aj"/><use transform="matrix(0.010850694444444444,0,0,0.010850694444444444,178.76519097222223,0)" xlink:href="#as"/><use transform="matrix(0.010850694444444444,0,0,0.010850694444444444,186.87065972222223,0)" xlink:href="#at"/></g><path d="M135 0v-1490h980v253H440v416h609v249H440V0H135" id="bb"/><path d="M443 0L31-1118h319c90 293 199 572 268 885 66-313 175-593 264-885h315L784 0H443" id="bc"/><g id="Q"><use transform="matrix(0.010850694444444444,0,0,0.010850694444444444,0,0)" xlink:href="#bb"/><use transform="matrix(0.010850694444444444,0,0,0.010850694444444444,12.67361111111111,0)" xlink:href="#aZ"/><use transform="matrix(0.010850694444444444,0,0,0.010850694444444444,25.1953125,0)" xlink:href="#bc"/><use transform="matrix(0.010850694444444444,0,0,0.010850694444444444,38.118489583333336,0)" xlink:href="#aY"/><use transform="matrix(0.010850694444444444,0,0,0.010850694444444444,51.74696180555556,0)" xlink:href="#aa"/><use transform="matrix(0.010850694444444444,0,0,0.010850694444444444,60.959201388888886,0)" xlink:href="#ay"/><use transform="matrix(0.010850694444444444,0,0,0.010850694444444444,66.98133680555556,0)" xlink:href="#aU"/><use transform="matrix(0.010850694444444444,0,0,0.010850694444444444,74.90234375,0)" xlink:href="#Z"/></g><g id="R"><use transform="matrix(0.010850694444444444,0,0,0.010850694444444444,0,0)" xlink:href="#ac"/><use transform="matrix(0.010850694444444444,0,0,0.010850694444444444,5.381944444444445,0)" xlink:href="#af"/><use transform="matrix(0.010850694444444444,0,0,0.010850694444444444,18.51128472222222,0)" xlink:href="#ag"/></g><g id="S"><use transform="matrix(0.010850694444444444,0,0,0.010850694444444444,0,0)" xlink:href="#ar"/><use transform="matrix(0.010850694444444444,0,0,0.010850694444444444,14.702690972222221,0)" xlink:href="#al"/><use transform="matrix(0.010850694444444444,0,0,0.010850694444444444,22.69965277777778,0)" xlink:href="#aj"/><use transform="matrix(0.010850694444444444,0,0,0.010850694444444444,35.65538194444444,0)" xlink:href="#ai"/><use transform="matrix(0.010850694444444444,0,0,0.010850694444444444,55.12152777777778,0)" xlink:href="#aq"/><use transform="matrix(0.010850694444444444,0,0,0.010850694444444444,68.01215277777777,0)" xlink:href="#aI"/><use transform="matrix(0.010850694444444444,0,0,0.010850694444444444,80.06727430555556,0)" xlink:href="#aj"/><use transform="matrix(0.010850694444444444,0,0,0.010850694444444444,93.02300347222221,0)" xlink:href="#as"/><use transform="matrix(0.010850694444444444,0,0,0.010850694444444444,101.12847222222224,0)" xlink:href="#at"/></g><path fill="#333" d="M749-1490V0H444v-1221h-10L93-980v-279l329-231h327" id="bd"/><path fill="#333" d="M342 19c-98 0-173-75-173-172s75-172 173-172 173 75 173 172S440 19 342 19" id="be"/><g id="T"><use transform="matrix(0.008680555555555556,0,0,0.008680555555555556,0,0)" xlink:href="#bd"/><use transform="matrix(0.008680555555555556,0,0,0.008680555555555556,7.664930555555556,0)" xlink:href="#be"/><use transform="matrix(0.008680555555555556,0,0,0.008680555555555556,13.602430555555555,0)" xlink:href="#be"/><use transform="matrix(0.008680555555555556,0,0,0.008680555555555556,17.93402777777778,0)" xlink:href="#bd"/></g><path fill="#333" d="M690 20C314 20 94-261 94-744c0-482 221-766 596-766 376 0 597 284 597 766 0 483-219 764-597 764zm0-253c184 0 286-184 286-511 0-328-102-514-286-514-183 0-285 187-285 514s101 511 285 511" id="bf"/><path fill="#333" d="M476-652l19-284-238 159-97-168 257-125-257-125 97-170 238 159-19-284h192l-18 284 238-159 95 170-255 125 255 125-95 168-238-159 18 284H476" id="bg"/><g id="U"><use transform="matrix(0.008680555555555556,0,0,0.008680555555555556,0,0)" xlink:href="#bf"/><use transform="matrix(0.008680555555555556,0,0,0.008680555555555556,11.46701388888889,0)" xlink:href="#be"/><use transform="matrix(0.008680555555555556,0,0,0.008680555555555556,17.40451388888889,0)" xlink:href="#be"/><use transform="matrix(0.008680555555555556,0,0,0.008680555555555556,23.34201388888889,0)" xlink:href="#bg"/></g><g id="V"><use transform="matrix(0.008680555555555556,0,0,0.008680555555555556,0,0)" xlink:href="#bd"/><use transform="matrix(0.008680555555555556,0,0,0.008680555555555556,7.664930555555556,0)" xlink:href="#be"/><use transform="matrix(0.008680555555555556,0,0,0.008680555555555556,13.602430555555555,0)" xlink:href="#be"/><use transform="matrix(0.008680555555555556,0,0,0.008680555555555556,19.539930555555557,0)" xlink:href="#bg"/></g><use transform="matrix(0.008680555555555556,0,0,0.008680555555555556,0,0)" xlink:href="#bd" id="W"/></defs></g></svg>